<?xml version="1.0" encoding="UTF-8"?>
<!-- Generated by jsxcad -->
<!DOCTYPE svg PUBLIC "-//W3C//DTD SVG 1.1 Tiny//EN" "http://www.w3.org/Graphics/SVG/1.1/DTD/svg11-tiny.dtd">
<svg baseProfile="tiny" height="20.000000000000014mm" width="27.08677594651462mm" viewBox="-17.086775946514614 -10.000000000000007 27.08677594651462 20.000000000000014" version="1.1" stroke="black" stroke-width=".1" fill="none" xmlns="http://www.w3.org/2000/svg">
<path fill="#c0c0c0" stroke="#c0c0c0" d="M0.2812607391169644 -3.8833333333333324 L0.4844555433772322 -3.1249999999999996 L0.4844555433772322 -3.1249999999999996 L0.31252147823392873 -3.7666666666666657 L0.2500000000000001 -3.999999999999999 L0.2500000000000001 -3.999999999999999 z"/>
<path fill="#c0c0c0" stroke="#c0c0c0" d="M2.758333333333333 -5.546805195739732 L1.9999999999999998 -5.75 L1.9999999999999998 -5.75 L2.641666666666666 -5.578065934856696 L2.8749999999999996 -5.515544456622767 L2.8749999999999996 -5.515544456622767 z"/>
<path fill="#c0c0c0" stroke="#c0c0c0" d="M1.0395940724502963 -5.430138529073064 L0.4844555433772319 -4.874999999999999 L0.4844555433772319 -4.874999999999999 L0.9541881449005942 -5.344732601523362 L1.1249999999999987 -5.5155444566227665 L1.1249999999999987 -5.5155444566227665 z"/>
<path fill="#c0c0c0" stroke="#c0c0c0" d="M2.233333333333333 -2.3125214782339283 L1.9999999999999998 -2.2499999999999996 L1.9999999999999998 -2.2499999999999996 L2.1166666666666663 -2.281260739116964 L2.8749999999999996 -2.484455543377232 L2.8749999999999996 -2.484455543377232 z"/>
<path fill="#c0c0c0" stroke="#c0c0c0" d="M2.960405927549702 -2.5698614709269347 L3.5155444566227674 -3.125 L3.5155444566227674 -3.125 L3.0458118550994047 -2.655267398476637 L2.875 -2.484455543377232 L2.875 -2.484455543377232 z"/>
<path fill="#c0c0c0" stroke="#c0c0c0" d="M3.4301385290730653 -4.960405927549702 L2.875000000000001 -5.5155444566227665 L2.875000000000001 -5.5155444566227665 L3.344732601523363 -5.045811855099404 L3.515544456622768 -4.874999999999999 L3.515544456622768 -4.874999999999999 z"/>
<path fill="#c0c0c0" stroke="#c0c0c0" d="M3.718739260883036 -4.116666666666665 L3.515544456622768 -4.874999999999999 L3.515544456622768 -4.874999999999999 L3.6874785217660713 -4.2333333333333325 L3.75 -3.999999999999999 L3.75 -3.999999999999999 z"/>
<path fill="#c0c0c0" stroke="#c0c0c0" d="M3.5155444566227674 -3.125 L3.5155444566227674 -3.125 L3.546805195739732 -3.2416666666666663 L3.7499999999999996 -3.9999999999999996 L3.7499999999999996 -3.9999999999999996 L3.578065934856696 -3.358333333333333 z"/>
<path fill="#c0c0c0" stroke="#c0c0c0" d="M1.1250000000000002 -2.484455543377232 L1.1250000000000002 -2.484455543377232 L1.241666666666667 -2.4531948042602676 L1.9999999999999998 -2.25 L1.9999999999999998 -2.25 L1.3583333333333334 -2.4219340651433034 z"/>
<path fill="#c0c0c0" stroke="#c0c0c0" d="M0.2499999999999999 -3.999999999999999 L0.2499999999999999 -3.999999999999999 L0.4219340651433036 -4.641666666666666 L0.4844555433772323 -4.874999999999999 L0.4844555433772323 -4.874999999999999 L0.4531948042602679 -4.758333333333333 z"/>
<path fill="#c0c0c0" stroke="#c0c0c0" d="M0.4844555433772321 -3.125 L0.4844555433772321 -3.125 L0.5698614709269345 -3.0395940724502974 L1.1250000000000002 -2.484455543377232 L1.1250000000000002 -2.484455543377232 L0.6552673984766368 -2.9541881449005953 z"/>
<path fill="#c0c0c0" stroke="#c0c0c0" d="M1.1249999999999991 -5.5155444566227665 L1.1249999999999991 -5.5155444566227665 L1.7666666666666664 -5.687478521766071 L1.9999999999999998 -5.749999999999999 L1.9999999999999998 -5.749999999999999 L1.883333333333333 -5.718739260883035 z"/>
<path fill="#c0c0c0" stroke="#c0c0c0" d="M0.31252147823392856 4.233333333333333 L0.2499999999999999 3.9999999999999996 L0.2499999999999999 3.9999999999999996 L0.28126073911696414 4.116666666666666 L0.4844555433772321 4.874999999999999 L0.4844555433772321 4.874999999999999 z"/>
<path fill="#c0c0c0" stroke="#c0c0c0" d="M2.341506350946109 2.3415063509461094 L2.641666666666666 2.4219340651433034 L2.8749999999999996 2.484455543377232 L2.8749999999999996 2.484455543377232 L2.758333333333333 2.4531948042602676 L2.341506350946109 2.3415063509461094 L1.9999999999999998 2.2499999999999996 L1.9999999999999998 2.2499999999999996 z"/>
<path fill="#c0c0c0" stroke="#c0c0c0" d="M1.0395940724502972 2.5698614709269343 L0.48445554337723296 3.124999999999999 L0.48445554337723296 3.124999999999999 L0.954188144900595 2.655267398476637 L1.1249999999999993 2.484455543377232 L1.1249999999999993 2.484455543377232 z"/>
<path fill="#c0c0c0" stroke="#c0c0c0" d="M2.233333333333333 5.687478521766071 L1.9999999999999998 5.75 L1.9999999999999998 5.75 L2.1166666666666663 5.718739260883035 L2.8749999999999996 5.515544456622767 L2.8749999999999996 5.515544456622767 z"/>
<path fill="#c0c0c0" stroke="#c0c0c0" d="M2.9604059275497026 5.430138529073065 L3.515544456622768 4.874999999999999 L3.515544456622768 4.874999999999999 L3.0458118550994047 5.344732601523362 L2.8750000000000004 5.5155444566227665 L2.8750000000000004 5.5155444566227665 z"/>
<path fill="#c0c0c0" stroke="#c0c0c0" d="M3.4301385290730653 3.0395940724502974 L2.875 2.484455543377232 L2.875 2.484455543377232 L3.3447326015233627 2.9541881449005953 L3.5155444566227674 3.125 L3.5155444566227674 3.125 z"/>
<path fill="#c0c0c0" stroke="#c0c0c0" d="M3.65849364905389 3.65849364905389 L3.6874785217660713 3.766666666666666 L3.7499999999999996 3.9999999999999996 L3.7499999999999996 3.9999999999999996 L3.7187392608830354 3.883333333333333 L3.65849364905389 3.65849364905389 L3.5155444566227674 3.1249999999999996 L3.5155444566227674 3.1249999999999996 z"/>
<path fill="#c0c0c0" stroke="#c0c0c0" d="M3.515544456622768 4.874999999999999 L3.515544456622768 4.874999999999999 L3.546805195739732 4.758333333333332 L3.75 3.9999999999999996 L3.75 3.9999999999999996 L3.578065934856696 4.641666666666666 z"/>
<path fill="#c0c0c0" stroke="#c0c0c0" d="M1.1250000000000002 5.515544456622767 L1.1250000000000002 5.515544456622767 L1.241666666666667 5.546805195739732 L1.9999999999999998 5.749999999999999 L1.9999999999999998 5.749999999999999 L1.3583333333333334 5.578065934856696 z"/>
<path fill="#c0c0c0" stroke="#c0c0c0" d="M0.25000000000000017 3.999999999999999 L0.25000000000000017 3.999999999999999 L0.42193406514330384 3.3583333333333325 L0.48445554337723246 3.124999999999999 L0.48445554337723246 3.124999999999999 L0.45319480426026815 3.241666666666666 z"/>
<path fill="#c0c0c0" stroke="#c0c0c0" d="M0.4844555433772321 4.874999999999999 L0.4844555433772321 4.874999999999999 L0.5698614709269345 4.960405927549702 L1.1250000000000002 5.515544456622767 L1.1250000000000002 5.515544456622767 L0.6552673984766368 5.045811855099404 z"/>
<path fill="#c0c0c0" stroke="#c0c0c0" d="M1.1249999999999991 2.4844555433772326 L1.1249999999999991 2.4844555433772326 L1.7666666666666664 2.3125214782339283 L1.9999999999999998 2.25 L1.9999999999999998 2.25 L1.883333333333333 2.281260739116964 z"/>
<path fill="#c0c0c0" stroke="#c0c0c0" d="M-10 10 L10 10 L10 10 L-10 10 z"/>
<path fill="#c0c0c0" stroke="#c0c0c0" d="M-10 -10 L-10 10 L-10 10 L-10 -10 z"/>
<path fill="#c0c0c0" stroke="#c0c0c0" d="M10 -10 L-10 -10 L-10 -10 L10 -10 z"/>
<path fill="#c0c0c0" stroke="#c0c0c0" d="M10 10 L10 -10 L10 -10 L10 10 z"/>
<path fill="#c0c0c0" stroke="#c0c0c0" d="M-10 -9.999999999999998 L-10 9.999999999999998 L10 9.999999999999998 L10 -9.999999999999998 M0.4844555433772324 3.124999999999999 L1.0395940724502968 2.5698614709269343 L1.1249999999999991 2.484455543377232 L1.8833333333333333 2.2812607391169637 L2 2.2499999999999996 L2.3415063509461094 2.341506350946109 L2.7583333333333333 2.4531948042602676 L2.875 2.484455543377232 L3.4301385290730653 3.039594072450297 L3.515544456622768 3.125 L3.65849364905389 3.65849364905389 L3.7187392608830354 3.883333333333333 L3.75 3.9999999999999996 L3.546805195739732 4.758333333333333 L3.515544456622768 4.874999999999999 L2.9604059275497026 5.430138529073065 L2.875 5.5155444566227665 L2.1166666666666667 5.7187392608830345 L2 5.749999999999999 L1.241666666666667 5.546805195739731 L1.1250000000000004 5.515544456622767 L0.5698614709269345 4.960405927549702 L0.4844555433772322 4.874999999999999 L0.28126073911696425 4.116666666666666 L0.25 3.9999999999999996 L0.45319480426026804 3.241666666666666 z"/>
<path fill="#c0c0c0" stroke="#c0c0c0" d="M-10 -9.999999999999998 L10 -9.999999999999998 L10 9.999999999999998 L-10 9.999999999999998 M0.31252147823392856 4.2333333333333325 L0.4844555433772322 4.874999999999999 L0.655267398476637 5.045811855099403 L1.1250000000000004 5.5155444566227665 L1.3583333333333336 5.578065934856696 L2 5.749999999999999 L2.2333333333333334 5.687478521766071 L2.875 5.5155444566227665 L3.0458118550994047 5.344732601523362 L3.515544456622768 4.874999999999999 L3.578065934856696 4.641666666666666 L3.75 3.9999999999999996 L3.6874785217660713 3.766666666666666 L3.65849364905389 3.6584936490538897 L3.515544456622768 3.1249999999999996 L3.3447326015233627 2.9541881449005953 L2.875 2.4844555433772317 L2.6416666666666666 2.4219340651433034 L2.3415063509461094 2.3415063509461094 L2 2.2499999999999996 L1.7666666666666664 2.3125214782339283 L1.1249999999999991 2.484455543377232 L0.9541881449005947 2.6552673984766364 L0.4844555433772324 3.1249999999999996 L0.4219340651433037 3.358333333333333 L0.25 3.9999999999999996 z"/>
<path fill="#000000" stroke="#000000" d="M3.1198491651801734 -6.890663911153503 L3.1198491651801734 -6.890663911153503 L1.9999999999999998 -7.1 L1.9999999999999998 -7.1 z"/>
<path fill="#000000" stroke="#000000" d="M4.088456495304326 -6.290927643384044 L4.088456495304326 -6.290927643384044 L3.1198491651801734 -6.890663911153503 L3.1198491651801734 -6.890663911153503 z"/>
<path fill="#000000" stroke="#000000" d="M4.775006203200693 -5.381788902907268 L4.775006203200693 -5.381788902907268 L4.088456495304327 -6.290927643384043 L4.088456495304327 -6.290927643384043 z"/>
<path fill="#000000" stroke="#000000" d="M5.0867759465146065 -4.2860319143362355 L5.0867759465146065 -4.2860319143362355 L4.775006203200693 -5.381788902907268 L4.775006203200693 -5.381788902907268 z"/>
<path fill="#000000" stroke="#000000" d="M4.981659493835739 -3.1516447307765434 L4.981659493835739 -3.1516447307765434 L5.0867759465146065 -4.286031914336236 L5.0867759465146065 -4.286031914336236 z"/>
<path fill="#000000" stroke="#000000" d="M4.473853404568742 -2.131832627224305 L4.473853404568742 -2.131832627224305 L4.981659493835739 -3.1516447307765434 L4.981659493835739 -3.1516447307765434 z"/>
<path fill="#000000" stroke="#000000" d="M3.6319397049198034 -1.3643268792381964 L3.6319397049198034 -1.3643268792381964 L4.473853404568742 -2.131832627224305 L4.473853404568742 -2.131832627224305 z"/>
<path fill="#000000" stroke="#000000" d="M2.569623505231369 -0.9527833909799045 L2.569623505231369 -0.9527833909799045 L3.6319397049198034 -1.3643268792381968 L3.6319397049198034 -1.3643268792381968 z"/>
<path fill="#000000" stroke="#000000" d="M1.4303764947686328 -0.952783390979904 L1.4303764947686328 -0.952783390979904 L2.5696235052313687 -0.9527833909799045 L2.5696235052313687 -0.9527833909799045 z"/>
<path fill="#000000" stroke="#000000" d="M0.36806029508019894 -1.3643268792381948 L0.36806029508019894 -1.3643268792381948 L1.4303764947686328 -0.9527833909799042 L1.4303764947686328 -0.9527833909799042 z"/>
<path fill="#000000" stroke="#000000" d="M-0.4738534045687412 -2.1318326272243038 L-0.4738534045687412 -2.1318326272243038 L0.36806029508019894 -1.3643268792381948 L0.36806029508019894 -1.3643268792381948 z"/>
<path fill="#000000" stroke="#000000" d="M-0.9816594938357384 -3.1516447307765407 L-0.9816594938357384 -3.1516447307765407 L-0.47385340456874114 -2.1318326272243038 L-0.47385340456874114 -2.1318326272243038 z"/>
<path fill="#000000" stroke="#000000" d="M1.9999999999999998 -7.1 L1.9999999999999998 -7.1 L0.8801508348198283 -6.890663911153504 L0.8801508348198283 -6.890663911153504 z"/>
<path fill="#000000" stroke="#000000" d="M-1.0867759465146072 -4.286031914336235 L-1.0867759465146072 -4.286031914336235 L-0.9816594938357385 -3.1516447307765407 L-0.9816594938357385 -3.1516447307765407 z"/>
<path fill="#000000" stroke="#000000" d="M-0.7750062032006939 -5.3817889029072665 L-0.7750062032006939 -5.3817889029072665 L-1.0867759465146074 -4.286031914336235 L-1.0867759465146074 -4.286031914336235 z"/>
<path fill="#000000" stroke="#000000" d="M0.8801508348198283 -6.890663911153504 L0.8801508348198283 -6.890663911153504 L-0.08845649530432718 -6.290927643384044 L-0.08845649530432718 -6.290927643384044 z"/>
<path fill="#000000" stroke="#000000" d="M-0.08845649530432818 -6.290927643384042 L-0.08845649530432818 -6.290927643384042 L-0.7750062032006942 -5.381788902907266 L-0.7750062032006942 -5.381788902907266 z"/>
<path fill="#000000" stroke="#000000" d="M3.119849165180174 -6.890663911153503 L2 -7.1 L0.8801508348198284 -6.890663911153504 L-0.0884564953043272 -6.290927643384043 L-0.7750062032006939 -5.3817889029072665 L-1.0867759465146074 -4.286031914336234 L-0.9816594938357386 -3.1516447307765407 L-0.47385340456874125 -2.1318326272243038 L0.368060295080199 -1.3643268792381946 L1.430376494768633 -0.952783390979904 L2.569623505231369 -0.9527833909799044 L3.631939704919804 -1.3643268792381968 L4.473853404568743 -2.1318326272243047 L4.981659493835739 -3.151644730776543 L5.0867759465146065 -4.2860319143362355 L4.775006203200693 -5.381788902907268 L4.088456495304327 -6.290927643384043 z"/>
<path fill="#000000" stroke="#000000" d="M2 -7.1 L3.119849165180174 -6.890663911153503 L4.088456495304327 -6.290927643384043 L4.775006203200693 -5.381788902907268 L5.0867759465146065 -4.2860319143362355 L4.981659493835739 -3.151644730776543 L4.473853404568743 -2.1318326272243047 L3.631939704919804 -1.3643268792381968 L2.569623505231369 -0.9527833909799044 L1.430376494768633 -0.952783390979904 L0.368060295080199 -1.3643268792381946 L-0.47385340456874125 -2.1318326272243038 L-0.9816594938357386 -3.1516447307765407 L-1.0867759465146074 -4.286031914336234 L-0.7750062032006939 -5.3817889029072665 L-0.0884564953043272 -6.290927643384043 L0.8801508348198284 -6.890663911153504 z"/>
<path fill="#000000" stroke="#000000" d="M2.8749999999999996 -5.515544456622767 L2.8749999999999996 -5.515544456622767 L2 -5.75 L2 -5.75 z"/>
<path fill="#000000" stroke="#000000" d="M3.515544456622768 -4.874999999999999 L3.515544456622768 -4.874999999999999 L2.8750000000000004 -5.5155444566227665 L2.8750000000000004 -5.5155444566227665 z"/>
<path fill="#000000" stroke="#000000" d="M3.75 -3.9999999999999996 L3.75 -3.9999999999999996 L3.515544456622768 -4.874999999999999 L3.515544456622768 -4.874999999999999 z"/>
<path fill="#000000" stroke="#000000" d="M2 -2.2499999999999996 L2 -2.2499999999999996 L2.8749999999999996 -2.484455543377232 L2.8749999999999996 -2.484455543377232 z"/>
<path fill="#000000" stroke="#000000" d="M3.5155444566227674 -3.1249999999999996 L3.5155444566227674 -3.1249999999999996 L3.7499999999999996 -3.9999999999999996 L3.7499999999999996 -3.9999999999999996 z"/>
<path fill="#000000" stroke="#000000" d="M2.8749999999999996 -2.4844555433772317 L2.8749999999999996 -2.4844555433772317 L3.515544456622767 -3.1249999999999996 L3.515544456622767 -3.1249999999999996 z"/>
<path fill="#000000" stroke="#000000" d="M1.1250000000000002 -2.484455543377232 L1.1250000000000002 -2.484455543377232 L1.9999999999999996 -2.25 L1.9999999999999996 -2.25 z"/>
<path fill="#000000" stroke="#000000" d="M0.48445554337723223 -4.874999999999999 L0.48445554337723223 -4.874999999999999 L0.2499999999999999 -3.999999999999999 L0.2499999999999999 -3.999999999999999 z"/>
<path fill="#000000" stroke="#000000" d="M0.4844555433772321 -3.125 L0.4844555433772321 -3.125 L1.1250000000000002 -2.484455543377232 L1.1250000000000002 -2.484455543377232 z"/>
<path fill="#000000" stroke="#000000" d="M0.25 -3.9999999999999996 L0.25 -3.9999999999999996 L0.48445554337723223 -3.1249999999999996 L0.48445554337723223 -3.1249999999999996 z"/>
<path fill="#000000" stroke="#000000" d="M1.1249999999999982 -5.5155444566227665 L1.1249999999999982 -5.5155444566227665 L0.48445554337723173 -4.874999999999999 L0.48445554337723173 -4.874999999999999 z"/>
<path fill="#000000" stroke="#000000" d="M2 -5.749999999999999 L2 -5.749999999999999 L1.1249999999999991 -5.5155444566227665 L1.1249999999999991 -5.5155444566227665 z"/>
<path fill="#000000" stroke="#000000" d="M2.875 -5.5155444566227665 L2 -5.749999999999999 L1.1249999999999991 -5.5155444566227665 L0.4844555433772324 -4.875 L0.25 -3.999999999999999 L0.4844555433772322 -3.1249999999999996 L1.1250000000000004 -2.4844555433772317 L2 -2.2499999999999996 L2.875 -2.484455543377232 L3.515544456622768 -3.1249999999999996 L3.75 -3.999999999999999 L3.515544456622768 -4.874999999999999 z"/>
<path fill="#000000" stroke="#000000" d="M2 -5.749999999999999 L2.875 -5.5155444566227665 L3.515544456622768 -4.874999999999999 L3.75 -3.999999999999999 L3.515544456622768 -3.1249999999999996 L2.875 -2.484455543377232 L2 -2.2499999999999996 L1.1250000000000004 -2.4844555433772317 L0.4844555433772322 -3.1249999999999996 L0.25 -3.999999999999999 L0.4844555433772324 -4.875 L1.1249999999999991 -5.5155444566227665 z"/>
<path fill="#000000" stroke="#000000" d="M3.1198491651801734 1.1093360888464965 L3.1198491651801734 1.1093360888464965 L1.9999999999999998 0.8999999999999998 L1.9999999999999998 0.8999999999999998 z"/>
<path fill="#000000" stroke="#000000" d="M4.088456495304326 1.7090723566159558 L4.088456495304326 1.7090723566159558 L3.1198491651801734 1.1093360888464965 L3.1198491651801734 1.1093360888464965 z"/>
<path fill="#000000" stroke="#000000" d="M4.775006203200692 2.6182110970927304 L4.775006203200692 2.6182110970927304 L4.088456495304326 1.709072356615956 L4.088456495304326 1.709072356615956 z"/>
<path fill="#000000" stroke="#000000" d="M5.0867759465146065 3.7139680856637627 L5.0867759465146065 3.7139680856637627 L4.775006203200692 2.6182110970927304 L4.775006203200692 2.6182110970927304 z"/>
<path fill="#000000" stroke="#000000" d="M4.981659493835739 4.848355269223456 L4.981659493835739 4.848355269223456 L5.0867759465146065 3.7139680856637627 L5.0867759465146065 3.7139680856637627 z"/>
<path fill="#000000" stroke="#000000" d="M4.473853404568743 5.868167372775694 L4.473853404568743 5.868167372775694 L4.981659493835739 4.848355269223456 L4.981659493835739 4.848355269223456 z"/>
<path fill="#000000" stroke="#000000" d="M3.6319397049198034 6.635673120761803 L3.6319397049198034 6.635673120761803 L4.473853404568742 5.8681673727756944 L4.473853404568742 5.8681673727756944 z"/>
<path fill="#000000" stroke="#000000" d="M2.569623505231369 7.047216609020095 L2.569623505231369 7.047216609020095 L3.6319397049198034 6.635673120761803 L3.6319397049198034 6.635673120761803 z"/>
<path fill="#000000" stroke="#000000" d="M1.4303764947686328 7.047216609020095 L1.4303764947686328 7.047216609020095 L2.5696235052313687 7.047216609020095 L2.5696235052313687 7.047216609020095 z"/>
<path fill="#000000" stroke="#000000" d="M0.36806029508019894 6.635673120761805 L0.36806029508019894 6.635673120761805 L1.4303764947686328 7.047216609020095 L1.4303764947686328 7.047216609020095 z"/>
<path fill="#000000" stroke="#000000" d="M-0.4738534045687412 5.868167372775695 L-0.4738534045687412 5.868167372775695 L0.36806029508019894 6.635673120761805 L0.36806029508019894 6.635673120761805 z"/>
<path fill="#000000" stroke="#000000" d="M-0.9816594938357386 4.848355269223458 L-0.9816594938357386 4.848355269223458 L-0.4738534045687414 5.868167372775695 L-0.4738534045687414 5.868167372775695 z"/>
<path fill="#000000" stroke="#000000" d="M1.9999999999999998 0.8999999999999999 L1.9999999999999998 0.8999999999999999 L0.8801508348198283 1.1093360888464958 L0.8801508348198283 1.1093360888464958 z"/>
<path fill="#000000" stroke="#000000" d="M-1.0867759465146074 3.713968085663765 L-1.0867759465146074 3.713968085663765 L-0.9816594938357386 4.8483552692234575 L-0.9816594938357386 4.8483552692234575 z"/>
<path fill="#000000" stroke="#000000" d="M-0.7750062032006938 2.6182110970927326 L-0.7750062032006938 2.6182110970927326 L-1.086775946514607 3.713968085663764 L-1.086775946514607 3.713968085663764 z"/>
<path fill="#000000" stroke="#000000" d="M0.8801508348198283 1.1093360888464958 L0.8801508348198283 1.1093360888464958 L-0.08845649530432718 1.709072356615956 L-0.08845649530432718 1.709072356615956 z"/>
<path fill="#000000" stroke="#000000" d="M-0.08845649530432703 1.709072356615956 L-0.08845649530432703 1.709072356615956 L-0.7750062032006938 2.6182110970927326 L-0.7750062032006938 2.6182110970927326 z"/>
<path fill="#000000" stroke="#000000" d="M3.119849165180174 1.1093360888464965 L2 0.8999999999999998 L0.8801508348198284 1.1093360888464956 L-0.0884564953043272 1.709072356615956 L-0.7750062032006939 2.6182110970927326 L-1.0867759465146074 3.7139680856637645 L-0.9816594938357386 4.8483552692234575 L-0.47385340456874125 5.868167372775695 L0.368060295080199 6.635673120761805 L1.430376494768633 7.0472166090200945 L2.569623505231369 7.0472166090200945 L3.631939704919804 6.635673120761802 L4.473853404568743 5.868167372775694 L4.981659493835739 4.848355269223455 L5.0867759465146065 3.713968085663763 L4.775006203200693 2.6182110970927304 L4.088456495304327 1.709072356615956 z"/>
<path fill="#000000" stroke="#000000" d="M2 0.8999999999999998 L3.119849165180174 1.1093360888464965 L4.088456495304327 1.709072356615956 L4.775006203200693 2.6182110970927304 L5.0867759465146065 3.713968085663763 L4.981659493835739 4.848355269223455 L4.473853404568743 5.868167372775694 L3.631939704919804 6.635673120761802 L2.569623505231369 7.0472166090200945 L1.430376494768633 7.0472166090200945 L0.368060295080199 6.635673120761805 L-0.47385340456874125 5.868167372775695 L-0.9816594938357386 4.8483552692234575 L-1.0867759465146074 3.7139680856637645 L-0.7750062032006939 2.6182110970927326 L-0.0884564953043272 1.709072356615956 L0.8801508348198284 1.1093360888464956 z"/>
<path fill="#000000" stroke="#000000" d="M2.8749999999999996 2.484455543377232 L2.8749999999999996 2.484455543377232 L2 2.2499999999999996 L2 2.2499999999999996 z"/>
<path fill="#000000" stroke="#000000" d="M3.515544456622767 3.1249999999999996 L3.515544456622767 3.1249999999999996 L2.8749999999999996 2.4844555433772317 L2.8749999999999996 2.4844555433772317 z"/>
<path fill="#000000" stroke="#000000" d="M3.7499999999999996 3.9999999999999996 L3.7499999999999996 3.9999999999999996 L3.5155444566227674 3.1249999999999996 L3.5155444566227674 3.1249999999999996 z"/>
<path fill="#000000" stroke="#000000" d="M2 5.75 L2 5.75 L2.8749999999999996 5.515544456622767 L2.8749999999999996 5.515544456622767 z"/>
<path fill="#000000" stroke="#000000" d="M3.515544456622768 4.874999999999999 L3.515544456622768 4.874999999999999 L3.75 3.9999999999999996 L3.75 3.9999999999999996 z"/>
<path fill="#000000" stroke="#000000" d="M2.8750000000000004 5.5155444566227665 L2.8750000000000004 5.5155444566227665 L3.515544456622768 4.874999999999999 L3.515544456622768 4.874999999999999 z"/>
<path fill="#000000" stroke="#000000" d="M1.1250000000000002 5.515544456622767 L1.1250000000000002 5.515544456622767 L1.9999999999999996 5.749999999999999 L1.9999999999999996 5.749999999999999 z"/>
<path fill="#000000" stroke="#000000" d="M0.48445554337723246 3.1249999999999996 L0.48445554337723246 3.1249999999999996 L0.25 4 L0.25 4 z"/>
<path fill="#000000" stroke="#000000" d="M0.4844555433772321 4.874999999999999 L0.4844555433772321 4.874999999999999 L1.1250000000000002 5.515544456622767 L1.1250000000000002 5.515544456622767 z"/>
<path fill="#000000" stroke="#000000" d="M0.24999999999999983 3.9999999999999996 L0.24999999999999983 3.9999999999999996 L0.4844555433772321 4.874999999999999 L0.4844555433772321 4.874999999999999 z"/>
<path fill="#000000" stroke="#000000" d="M1.1249999999999991 2.484455543377232 L1.1249999999999991 2.484455543377232 L0.48445554337723257 3.1249999999999996 L0.48445554337723257 3.1249999999999996 z"/>
<path fill="#000000" stroke="#000000" d="M2 2.25 L2 2.25 L1.1249999999999991 2.4844555433772326 L1.1249999999999991 2.4844555433772326 z"/>
<path fill="#000000" stroke="#000000" d="M2.875 2.484455543377232 L2 2.2499999999999996 L1.1249999999999991 2.484455543377232 L0.4844555433772324 3.1249999999999996 L0.25 3.999999999999999 L0.4844555433772322 4.874999999999999 L1.1250000000000004 5.515544456622767 L2 5.749999999999999 L2.875 5.5155444566227665 L3.515544456622768 4.874999999999999 L3.75 3.999999999999999 L3.515544456622768 3.1249999999999996 z"/>
<path fill="#000000" stroke="#000000" d="M2 2.2499999999999996 L2.875 2.484455543377232 L3.515544456622768 3.1249999999999996 L3.75 3.999999999999999 L3.515544456622768 4.874999999999999 L2.875 5.5155444566227665 L2 5.749999999999999 L1.1250000000000004 5.515544456622767 L0.4844555433772322 4.874999999999999 L0.25 3.999999999999999 L0.4844555433772324 3.1249999999999996 L1.1249999999999991 2.484455543377232 z"/>
<path fill="#c0c0c0" stroke="#c0c0c0" d="M0.2812607391169644 -3.8833333333333324 L0.4844555433772322 -3.1249999999999996 L0.4844555433772322 -3.1249999999999996 L0.31252147823392873 -3.7666666666666657 L0.2500000000000001 -3.999999999999999 L0.2500000000000001 -3.999999999999999 z"/>
<path fill="#c0c0c0" stroke="#c0c0c0" d="M2.758333333333333 -5.546805195739732 L1.9999999999999998 -5.75 L1.9999999999999998 -5.75 L2.641666666666666 -5.578065934856696 L2.8749999999999996 -5.515544456622767 L2.8749999999999996 -5.515544456622767 z"/>
<path fill="#c0c0c0" stroke="#c0c0c0" d="M1.0395940724502963 -5.430138529073064 L0.4844555433772319 -4.874999999999999 L0.4844555433772319 -4.874999999999999 L0.9541881449005942 -5.344732601523362 L1.1249999999999987 -5.5155444566227665 L1.1249999999999987 -5.5155444566227665 z"/>
<path fill="#c0c0c0" stroke="#c0c0c0" d="M2.233333333333333 -2.3125214782339283 L1.9999999999999998 -2.2499999999999996 L1.9999999999999998 -2.2499999999999996 L2.1166666666666663 -2.281260739116964 L2.8749999999999996 -2.484455543377232 L2.8749999999999996 -2.484455543377232 z"/>
<path fill="#c0c0c0" stroke="#c0c0c0" d="M2.960405927549702 -2.5698614709269347 L3.5155444566227674 -3.125 L3.5155444566227674 -3.125 L3.0458118550994047 -2.655267398476637 L2.875 -2.484455543377232 L2.875 -2.484455543377232 z"/>
<path fill="#c0c0c0" stroke="#c0c0c0" d="M3.4301385290730653 -4.960405927549702 L2.875000000000001 -5.5155444566227665 L2.875000000000001 -5.5155444566227665 L3.344732601523363 -5.045811855099404 L3.515544456622768 -4.874999999999999 L3.515544456622768 -4.874999999999999 z"/>
<path fill="#c0c0c0" stroke="#c0c0c0" d="M3.718739260883036 -4.116666666666665 L3.515544456622768 -4.874999999999999 L3.515544456622768 -4.874999999999999 L3.6874785217660713 -4.2333333333333325 L3.75 -3.999999999999999 L3.75 -3.999999999999999 z"/>
<path fill="#c0c0c0" stroke="#c0c0c0" d="M3.5155444566227674 -3.125 L3.5155444566227674 -3.125 L3.546805195739732 -3.2416666666666663 L3.7499999999999996 -3.9999999999999996 L3.7499999999999996 -3.9999999999999996 L3.578065934856696 -3.358333333333333 z"/>
<path fill="#c0c0c0" stroke="#c0c0c0" d="M1.1250000000000002 -2.484455543377232 L1.1250000000000002 -2.484455543377232 L1.241666666666667 -2.4531948042602676 L1.9999999999999998 -2.25 L1.9999999999999998 -2.25 L1.3583333333333334 -2.4219340651433034 z"/>
<path fill="#c0c0c0" stroke="#c0c0c0" d="M0.2499999999999999 -3.999999999999999 L0.2499999999999999 -3.999999999999999 L0.4219340651433036 -4.641666666666666 L0.4844555433772323 -4.874999999999999 L0.4844555433772323 -4.874999999999999 L0.4531948042602679 -4.758333333333333 z"/>
<path fill="#c0c0c0" stroke="#c0c0c0" d="M0.4844555433772321 -3.125 L0.4844555433772321 -3.125 L0.5698614709269345 -3.0395940724502974 L1.1250000000000002 -2.484455543377232 L1.1250000000000002 -2.484455543377232 L0.6552673984766368 -2.9541881449005953 z"/>
<path fill="#c0c0c0" stroke="#c0c0c0" d="M1.1249999999999991 -5.5155444566227665 L1.1249999999999991 -5.5155444566227665 L1.7666666666666664 -5.687478521766071 L1.9999999999999998 -5.749999999999999 L1.9999999999999998 -5.749999999999999 L1.883333333333333 -5.718739260883035 z"/>
<path fill="#c0c0c0" stroke="#c0c0c0" d="M0.31252147823392856 4.233333333333333 L0.2499999999999999 3.9999999999999996 L0.2499999999999999 3.9999999999999996 L0.28126073911696414 4.116666666666666 L0.4844555433772321 4.874999999999999 L0.4844555433772321 4.874999999999999 z"/>
<path fill="#c0c0c0" stroke="#c0c0c0" d="M2.341506350946109 2.3415063509461094 L2.641666666666666 2.4219340651433034 L2.8749999999999996 2.484455543377232 L2.8749999999999996 2.484455543377232 L2.758333333333333 2.4531948042602676 L2.341506350946109 2.3415063509461094 L1.9999999999999998 2.2499999999999996 L1.9999999999999998 2.2499999999999996 z"/>
<path fill="#c0c0c0" stroke="#c0c0c0" d="M1.0395940724502972 2.5698614709269343 L0.48445554337723296 3.124999999999999 L0.48445554337723296 3.124999999999999 L0.954188144900595 2.655267398476637 L1.1249999999999993 2.484455543377232 L1.1249999999999993 2.484455543377232 z"/>
<path fill="#c0c0c0" stroke="#c0c0c0" d="M2.233333333333333 5.687478521766071 L1.9999999999999998 5.75 L1.9999999999999998 5.75 L2.1166666666666663 5.718739260883035 L2.8749999999999996 5.515544456622767 L2.8749999999999996 5.515544456622767 z"/>
<path fill="#c0c0c0" stroke="#c0c0c0" d="M2.9604059275497026 5.430138529073065 L3.515544456622768 4.874999999999999 L3.515544456622768 4.874999999999999 L3.0458118550994047 5.344732601523362 L2.8750000000000004 5.5155444566227665 L2.8750000000000004 5.5155444566227665 z"/>
<path fill="#c0c0c0" stroke="#c0c0c0" d="M3.4301385290730653 3.0395940724502974 L2.875 2.484455543377232 L2.875 2.484455543377232 L3.3447326015233627 2.9541881449005953 L3.5155444566227674 3.125 L3.5155444566227674 3.125 z"/>
<path fill="#c0c0c0" stroke="#c0c0c0" d="M3.65849364905389 3.65849364905389 L3.6874785217660713 3.766666666666666 L3.7499999999999996 3.9999999999999996 L3.7499999999999996 3.9999999999999996 L3.7187392608830354 3.883333333333333 L3.65849364905389 3.65849364905389 L3.5155444566227674 3.1249999999999996 L3.5155444566227674 3.1249999999999996 z"/>
<path fill="#c0c0c0" stroke="#c0c0c0" d="M3.515544456622768 4.874999999999999 L3.515544456622768 4.874999999999999 L3.546805195739732 4.758333333333332 L3.75 3.9999999999999996 L3.75 3.9999999999999996 L3.578065934856696 4.641666666666666 z"/>
<path fill="#c0c0c0" stroke="#c0c0c0" d="M1.1250000000000002 5.515544456622767 L1.1250000000000002 5.515544456622767 L1.241666666666667 5.546805195739732 L1.9999999999999998 5.749999999999999 L1.9999999999999998 5.749999999999999 L1.3583333333333334 5.578065934856696 z"/>
<path fill="#c0c0c0" stroke="#c0c0c0" d="M0.25000000000000017 3.999999999999999 L0.25000000000000017 3.999999999999999 L0.42193406514330384 3.3583333333333325 L0.48445554337723246 3.124999999999999 L0.48445554337723246 3.124999999999999 L0.45319480426026815 3.241666666666666 z"/>
<path fill="#c0c0c0" stroke="#c0c0c0" d="M0.4844555433772321 4.874999999999999 L0.4844555433772321 4.874999999999999 L0.5698614709269345 4.960405927549702 L1.1250000000000002 5.515544456622767 L1.1250000000000002 5.515544456622767 L0.6552673984766368 5.045811855099404 z"/>
<path fill="#c0c0c0" stroke="#c0c0c0" d="M1.1249999999999991 2.4844555433772326 L1.1249999999999991 2.4844555433772326 L1.7666666666666664 2.3125214782339283 L1.9999999999999998 2.25 L1.9999999999999998 2.25 L1.883333333333333 2.281260739116964 z"/>
<path fill="#c0c0c0" stroke="#c0c0c0" d="M-10 10 L10 10 L10 10 L-10 10 z"/>
<path fill="#c0c0c0" stroke="#c0c0c0" d="M-10 -10 L-10 10 L-10 10 L-10 -10 z"/>
<path fill="#c0c0c0" stroke="#c0c0c0" d="M10 -10 L-10 -10 L-10 -10 L10 -10 z"/>
<path fill="#c0c0c0" stroke="#c0c0c0" d="M10 10 L10 -10 L10 -10 L10 10 z"/>
<path fill="#c0c0c0" stroke="#c0c0c0" d="M-10 -9.999999999999998 L-10 9.999999999999998 L10 9.999999999999998 L10 -9.999999999999998 M0.4844555433772324 3.124999999999999 L1.0395940724502968 2.5698614709269343 L1.1249999999999991 2.484455543377232 L1.8833333333333333 2.2812607391169637 L2 2.2499999999999996 L2.3415063509461094 2.341506350946109 L2.7583333333333333 2.4531948042602676 L2.875 2.484455543377232 L3.4301385290730653 3.039594072450297 L3.515544456622768 3.125 L3.65849364905389 3.65849364905389 L3.7187392608830354 3.883333333333333 L3.75 3.9999999999999996 L3.546805195739732 4.758333333333333 L3.515544456622768 4.874999999999999 L2.9604059275497026 5.430138529073065 L2.875 5.5155444566227665 L2.1166666666666667 5.7187392608830345 L2 5.749999999999999 L1.241666666666667 5.546805195739731 L1.1250000000000004 5.515544456622767 L0.5698614709269345 4.960405927549702 L0.4844555433772322 4.874999999999999 L0.28126073911696425 4.116666666666666 L0.25 3.9999999999999996 L0.45319480426026804 3.241666666666666 z"/>
<path fill="#c0c0c0" stroke="#c0c0c0" d="M-10 -9.999999999999998 L10 -9.999999999999998 L10 9.999999999999998 L-10 9.999999999999998 M0.31252147823392856 4.2333333333333325 L0.4844555433772322 4.874999999999999 L0.655267398476637 5.045811855099403 L1.1250000000000004 5.5155444566227665 L1.3583333333333336 5.578065934856696 L2 5.749999999999999 L2.2333333333333334 5.687478521766071 L2.875 5.5155444566227665 L3.0458118550994047 5.344732601523362 L3.515544456622768 4.874999999999999 L3.578065934856696 4.641666666666666 L3.75 3.9999999999999996 L3.6874785217660713 3.766666666666666 L3.65849364905389 3.6584936490538897 L3.515544456622768 3.1249999999999996 L3.3447326015233627 2.9541881449005953 L2.875 2.4844555433772317 L2.6416666666666666 2.4219340651433034 L2.3415063509461094 2.3415063509461094 L2 2.2499999999999996 L1.7666666666666664 2.3125214782339283 L1.1249999999999991 2.484455543377232 L0.9541881449005947 2.6552673984766364 L0.4844555433772324 3.1249999999999996 L0.4219340651433037 3.358333333333333 L0.25 3.9999999999999996 z"/>
<path fill="#000000" stroke="#000000" d="M-12.880150834819824 -6.679530347233886 L-12.880150834819824 -6.679530347233886 L-13.999999999999998 -6.888866436080383 L-13.999999999999998 -6.888866436080383 z"/>
<path fill="#000000" stroke="#000000" d="M-11.911543504695672 -6.079794079464426 L-11.911543504695672 -6.079794079464426 L-12.880150834819824 -6.679530347233885 L-12.880150834819824 -6.679530347233885 z"/>
<path fill="#000000" stroke="#000000" d="M-11.224993796799305 -5.170655338987651 L-11.224993796799305 -5.170655338987651 L-11.911543504695672 -6.079794079464426 L-11.911543504695672 -6.079794079464426 z"/>
<path fill="#000000" stroke="#000000" d="M-10.913224053485392 -4.0748983504166185 L-10.913224053485392 -4.0748983504166185 L-11.224993796799305 -5.170655338987651 L-11.224993796799305 -5.170655338987651 z"/>
<path fill="#000000" stroke="#000000" d="M-11.01834050616426 -2.9405111668569264 L-11.01834050616426 -2.9405111668569264 L-10.913224053485392 -4.0748983504166185 L-10.913224053485392 -4.0748983504166185 z"/>
<path fill="#000000" stroke="#000000" d="M-11.526146595431257 -1.920699063304688 L-11.526146595431257 -1.920699063304688 L-11.01834050616426 -2.9405111668569264 L-11.01834050616426 -2.9405111668569264 z"/>
<path fill="#000000" stroke="#000000" d="M-12.368060295080195 -1.153193315318581 L-12.368060295080195 -1.153193315318581 L-11.526146595431255 -1.9206990633046885 L-11.526146595431255 -1.9206990633046885 z"/>
<path fill="#000000" stroke="#000000" d="M-13.430376494768629 -0.7416498270602881 L-13.430376494768629 -0.7416498270602881 L-12.368060295080195 -1.15319331531858 L-12.368060295080195 -1.15319331531858 z"/>
<path fill="#000000" stroke="#000000" d="M-14.569623505231364 -0.7416498270602871 L-14.569623505231364 -0.7416498270602871 L-13.430376494768629 -0.7416498270602876 L-13.430376494768629 -0.7416498270602876 z"/>
<path fill="#000000" stroke="#000000" d="M-15.631939704919798 -1.1531933153185774 L-15.631939704919798 -1.1531933153185774 L-14.569623505231366 -0.741649827060287 L-14.569623505231366 -0.741649827060287 z"/>
<path fill="#000000" stroke="#000000" d="M-16.47385340456874 -1.9206990633046859 L-16.47385340456874 -1.9206990633046859 L-15.6319397049198 -1.1531933153185774 L-15.6319397049198 -1.1531933153185774 z"/>
<path fill="#000000" stroke="#000000" d="M-16.981659493835735 -2.9405111668569237 L-16.981659493835735 -2.9405111668569237 L-16.47385340456874 -1.9206990633046868 L-16.47385340456874 -1.9206990633046868 z"/>
<path fill="#000000" stroke="#000000" d="M-13.999999999999996 -6.888866436080383 L-13.999999999999996 -6.888866436080383 L-15.119849165180169 -6.679530347233888 L-15.119849165180169 -6.679530347233888 z"/>
<path fill="#000000" stroke="#000000" d="M-17.086775946514607 -4.074898350416617 L-17.086775946514607 -4.074898350416617 L-16.981659493835735 -2.9405111668569237 L-16.981659493835735 -2.9405111668569237 z"/>
<path fill="#000000" stroke="#000000" d="M-16.775006203200693 -5.170655338987649 L-16.775006203200693 -5.170655338987649 L-17.086775946514607 -4.074898350416617 L-17.086775946514607 -4.074898350416617 z"/>
<path fill="#000000" stroke="#000000" d="M-15.119849165180169 -6.6795303472338885 L-15.119849165180169 -6.6795303472338885 L-16.088456495304325 -6.079794079464427 L-16.088456495304325 -6.079794079464427 z"/>
<path fill="#000000" stroke="#000000" d="M-16.088456495304325 -6.079794079464426 L-16.088456495304325 -6.079794079464426 L-16.775006203200693 -5.1706553389876495 L-16.775006203200693 -5.1706553389876495 z"/>
<path fill="#000000" stroke="#000000" d="M-12.880150834819826 -6.679530347233886 L-13.999999999999998 -6.888866436080383 L-15.11984916518017 -6.679530347233887 L-16.088456495304325 -6.079794079464426 L-16.775006203200693 -5.1706553389876495 L-17.086775946514607 -4.074898350416617 L-16.981659493835735 -2.9405111668569237 L-16.47385340456874 -1.9206990633046868 L-15.6319397049198 -1.1531933153185776 L-14.569623505231366 -0.741649827060287 L-13.43037649476863 -0.7416498270602875 L-12.368060295080195 -1.1531933153185798 L-11.526146595431257 -1.9206990633046879 L-11.01834050616426 -2.940511166856926 L-10.913224053485392 -4.074898350416619 L-11.224993796799307 -5.170655338987651 L-11.911543504695672 -6.079794079464426 z"/>
<path fill="#000000" stroke="#000000" d="M-13.999999999999998 -6.888866436080383 L-12.880150834819826 -6.679530347233886 L-11.911543504695672 -6.079794079464426 L-11.224993796799307 -5.170655338987651 L-10.913224053485392 -4.074898350416619 L-11.01834050616426 -2.940511166856926 L-11.526146595431257 -1.9206990633046879 L-12.368060295080195 -1.1531933153185798 L-13.43037649476863 -0.7416498270602875 L-14.569623505231366 -0.741649827060287 L-15.6319397049198 -1.1531933153185776 L-16.47385340456874 -1.9206990633046868 L-16.981659493835735 -2.9405111668569237 L-17.086775946514607 -4.074898350416617 L-16.775006203200693 -5.1706553389876495 L-16.088456495304325 -6.079794079464426 L-15.11984916518017 -6.679530347233887 z"/>
<path fill="#000000" stroke="#000000" d="M-13.124999999999998 -5.3044108927031495 L-13.124999999999998 -5.3044108927031495 L-13.999999999999998 -5.538866436080382 L-13.999999999999998 -5.538866436080382 z"/>
<path fill="#000000" stroke="#000000" d="M-12.484455543377232 -4.663866436080382 L-12.484455543377232 -4.663866436080382 L-13.124999999999998 -5.3044108927031495 L-13.124999999999998 -5.3044108927031495 z"/>
<path fill="#000000" stroke="#000000" d="M-12.249999999999998 -3.788866436080382 L-12.249999999999998 -3.788866436080382 L-12.484455543377232 -4.663866436080382 L-12.484455543377232 -4.663866436080382 z"/>
<path fill="#000000" stroke="#000000" d="M-13.999999999999998 -2.038866436080383 L-13.999999999999998 -2.038866436080383 L-13.124999999999998 -2.2733219794576156 L-13.124999999999998 -2.2733219794576156 z"/>
<path fill="#000000" stroke="#000000" d="M-12.484455543377232 -2.913866436080383 L-12.484455543377232 -2.913866436080383 L-12.25 -3.788866436080382 L-12.25 -3.788866436080382 z"/>
<path fill="#000000" stroke="#000000" d="M-13.124999999999998 -2.273321979457615 L-13.124999999999998 -2.273321979457615 L-12.484455543377232 -2.9138664360803825 L-12.484455543377232 -2.9138664360803825 z"/>
<path fill="#000000" stroke="#000000" d="M-14.874999999999996 -2.2733219794576143 L-14.874999999999996 -2.2733219794576143 L-13.999999999999996 -2.038866436080382 L-13.999999999999996 -2.038866436080382 z"/>
<path fill="#000000" stroke="#000000" d="M-15.515544456622766 -4.663866436080382 L-15.515544456622766 -4.663866436080382 L-15.75 -3.7888664360803825 L-15.75 -3.7888664360803825 z"/>
<path fill="#000000" stroke="#000000" d="M-15.515544456622766 -2.9138664360803825 L-15.515544456622766 -2.9138664360803825 L-14.874999999999998 -2.2733219794576147 L-14.874999999999998 -2.2733219794576147 z"/>
<path fill="#000000" stroke="#000000" d="M-15.749999999999998 -3.788866436080382 L-15.749999999999998 -3.788866436080382 L-15.515544456622766 -2.913866436080383 L-15.515544456622766 -2.913866436080383 z"/>
<path fill="#000000" stroke="#000000" d="M-14.875 -5.3044108927031495 L-14.875 -5.3044108927031495 L-15.515544456622766 -4.663866436080382 L-15.515544456622766 -4.663866436080382 z"/>
<path fill="#000000" stroke="#000000" d="M-13.999999999999998 -5.538866436080383 L-13.999999999999998 -5.538866436080383 L-14.875 -5.30441089270315 L-14.875 -5.30441089270315 z"/>
<path fill="#000000" stroke="#000000" d="M-13.124999999999998 -5.3044108927031495 L-13.999999999999998 -5.538866436080382 L-14.875 -5.3044108927031495 L-15.515544456622766 -4.663866436080382 L-15.75 -3.7888664360803825 L-15.515544456622766 -2.913866436080383 L-14.874999999999998 -2.2733219794576147 L-13.999999999999998 -2.0388664360803825 L-13.124999999999998 -2.2733219794576147 L-12.484455543377232 -2.913866436080383 L-12.25 -3.7888664360803825 L-12.484455543377232 -4.663866436080382 z"/>
<path fill="#000000" stroke="#000000" d="M-13.999999999999998 -5.538866436080382 L-13.124999999999998 -5.3044108927031495 L-12.484455543377232 -4.663866436080382 L-12.25 -3.7888664360803825 L-12.484455543377232 -2.913866436080383 L-13.124999999999998 -2.2733219794576147 L-13.999999999999998 -2.0388664360803825 L-14.874999999999998 -2.2733219794576147 L-15.515544456622766 -2.913866436080383 L-15.75 -3.7888664360803825 L-15.515544456622766 -4.663866436080382 L-14.875 -5.3044108927031495 z"/>
<path fill="#000000" stroke="#000000" d="M-12.880150834819824 1.3204696527661137 L-12.880150834819824 1.3204696527661137 L-13.999999999999998 1.1111335639196172 L-13.999999999999998 1.1111335639196172 z"/>
<path fill="#000000" stroke="#000000" d="M-11.911543504695672 1.9202059205355735 L-11.911543504695672 1.9202059205355735 L-12.880150834819824 1.3204696527661144 L-12.880150834819824 1.3204696527661144 z"/>
<path fill="#000000" stroke="#000000" d="M-11.224993796799307 2.8293446610123474 L-11.224993796799307 2.8293446610123474 L-11.911543504695672 1.920205920535573 L-11.911543504695672 1.920205920535573 z"/>
<path fill="#000000" stroke="#000000" d="M-10.913224053485392 3.92510164958338 L-10.913224053485392 3.92510164958338 L-11.224993796799307 2.8293446610123474 L-11.224993796799307 2.8293446610123474 z"/>
<path fill="#000000" stroke="#000000" d="M-11.01834050616426 5.059488833143072 L-11.01834050616426 5.059488833143072 L-10.913224053485392 3.9251016495833797 L-10.913224053485392 3.9251016495833797 z"/>
<path fill="#000000" stroke="#000000" d="M-11.526146595431255 6.0793009366953115 L-11.526146595431255 6.0793009366953115 L-11.01834050616426 5.059488833143072 L-11.01834050616426 5.059488833143072 z"/>
<path fill="#000000" stroke="#000000" d="M-12.368060295080195 6.846806684681418 L-12.368060295080195 6.846806684681418 L-11.526146595431255 6.079300936695311 L-11.526146595431255 6.079300936695311 z"/>
<path fill="#000000" stroke="#000000" d="M-13.430376494768629 7.2583501729397115 L-13.430376494768629 7.2583501729397115 L-12.368060295080195 6.846806684681419 L-12.368060295080195 6.846806684681419 z"/>
<path fill="#000000" stroke="#000000" d="M-14.569623505231364 7.258350172939712 L-14.569623505231364 7.258350172939712 L-13.430376494768629 7.2583501729397115 L-13.430376494768629 7.2583501729397115 z"/>
<path fill="#000000" stroke="#000000" d="M-15.631939704919798 6.846806684681422 L-15.631939704919798 6.846806684681422 L-14.569623505231366 7.258350172939712 L-14.569623505231366 7.258350172939712 z"/>
<path fill="#000000" stroke="#000000" d="M-16.47385340456874 6.079300936695313 L-16.47385340456874 6.079300936695313 L-15.6319397049198 6.846806684681422 L-15.6319397049198 6.846806684681422 z"/>
<path fill="#000000" stroke="#000000" d="M-16.981659493835735 5.059488833143075 L-16.981659493835735 5.059488833143075 L-16.47385340456874 6.079300936695312 L-16.47385340456874 6.079300936695312 z"/>
<path fill="#000000" stroke="#000000" d="M-13.999999999999996 1.1111335639196165 L-13.999999999999996 1.1111335639196165 L-15.119849165180169 1.3204696527661122 L-15.119849165180169 1.3204696527661122 z"/>
<path fill="#000000" stroke="#000000" d="M-17.086775946514607 3.925101649583382 L-17.086775946514607 3.925101649583382 L-16.981659493835735 5.059488833143075 L-16.981659493835735 5.059488833143075 z"/>
<path fill="#000000" stroke="#000000" d="M-16.775006203200693 2.8293446610123496 L-16.775006203200693 2.8293446610123496 L-17.086775946514607 3.9251016495833815 L-17.086775946514607 3.9251016495833815 z"/>
<path fill="#000000" stroke="#000000" d="M-15.119849165180169 1.3204696527661113 L-15.119849165180169 1.3204696527661113 L-16.088456495304325 1.920205920535573 L-16.088456495304325 1.920205920535573 z"/>
<path fill="#000000" stroke="#000000" d="M-16.088456495304325 1.920205920535573 L-16.088456495304325 1.920205920535573 L-16.775006203200693 2.8293446610123496 L-16.775006203200693 2.8293446610123496 z"/>
<path fill="#000000" stroke="#000000" d="M-12.880150834819826 1.3204696527661135 L-13.999999999999998 1.1111335639196167 L-15.11984916518017 1.3204696527661126 L-16.088456495304325 1.920205920535573 L-16.775006203200693 2.8293446610123496 L-17.086775946514607 3.925101649583381 L-16.981659493835735 5.0594888331430745 L-16.47385340456874 6.079300936695312 L-15.6319397049198 6.846806684681422 L-14.569623505231366 7.2583501729397115 L-13.43037649476863 7.2583501729397115 L-12.368060295080195 6.846806684681419 L-11.526146595431257 6.079300936695311 L-11.01834050616426 5.059488833143072 L-10.913224053485392 3.9251016495833797 L-11.224993796799307 2.8293446610123474 L-11.911543504695672 1.920205920535573 z"/>
<path fill="#000000" stroke="#000000" d="M-13.999999999999998 1.1111335639196167 L-12.880150834819826 1.3204696527661135 L-11.911543504695672 1.920205920535573 L-11.224993796799307 2.8293446610123474 L-10.913224053485392 3.9251016495833797 L-11.01834050616426 5.059488833143072 L-11.526146595431257 6.079300936695311 L-12.368060295080195 6.846806684681419 L-13.43037649476863 7.2583501729397115 L-14.569623505231366 7.2583501729397115 L-15.6319397049198 6.846806684681422 L-16.47385340456874 6.079300936695312 L-16.981659493835735 5.0594888331430745 L-17.086775946514607 3.925101649583381 L-16.775006203200693 2.8293446610123496 L-16.088456495304325 1.920205920535573 L-15.11984916518017 1.3204696527661126 z"/>
<path fill="#000000" stroke="#000000" d="M-13.124999999999998 2.6955891072968496 L-13.124999999999998 2.6955891072968496 L-13.999999999999998 2.461133563919617 L-13.999999999999998 2.461133563919617 z"/>
<path fill="#000000" stroke="#000000" d="M-12.484455543377232 3.3361335639196166 L-12.484455543377232 3.3361335639196166 L-13.125 2.6955891072968488 L-13.125 2.6955891072968488 z"/>
<path fill="#000000" stroke="#000000" d="M-12.25 4.211133563919616 L-12.25 4.211133563919616 L-12.484455543377232 3.3361335639196166 L-12.484455543377232 3.3361335639196166 z"/>
<path fill="#000000" stroke="#000000" d="M-13.999999999999998 5.961133563919616 L-13.999999999999998 5.961133563919616 L-13.124999999999998 5.7266780205423835 L-13.124999999999998 5.7266780205423835 z"/>
<path fill="#000000" stroke="#000000" d="M-12.484455543377232 5.086133563919616 L-12.484455543377232 5.086133563919616 L-12.249999999999998 4.211133563919616 L-12.249999999999998 4.211133563919616 z"/>
<path fill="#000000" stroke="#000000" d="M-13.124999999999998 5.7266780205423835 L-13.124999999999998 5.7266780205423835 L-12.48445554337723 5.086133563919615 L-12.48445554337723 5.086133563919615 z"/>
<path fill="#000000" stroke="#000000" d="M-14.874999999999996 5.726678020542385 L-14.874999999999996 5.726678020542385 L-13.999999999999996 5.961133563919617 L-13.999999999999996 5.961133563919617 z"/>
<path fill="#000000" stroke="#000000" d="M-15.515544456622766 3.3361335639196166 L-15.515544456622766 3.3361335639196166 L-15.749999999999998 4.211133563919617 L-15.749999999999998 4.211133563919617 z"/>
<path fill="#000000" stroke="#000000" d="M-15.515544456622766 5.086133563919617 L-15.515544456622766 5.086133563919617 L-14.874999999999998 5.726678020542384 L-14.874999999999998 5.726678020542384 z"/>
<path fill="#000000" stroke="#000000" d="M-15.75 4.211133563919616 L-15.75 4.211133563919616 L-15.515544456622766 5.086133563919616 L-15.515544456622766 5.086133563919616 z"/>
<path fill="#000000" stroke="#000000" d="M-14.875 2.695589107296849 L-14.875 2.695589107296849 L-15.515544456622766 3.336133563919616 L-15.515544456622766 3.336133563919616 z"/>
<path fill="#000000" stroke="#000000" d="M-13.999999999999998 2.4611335639196166 L-13.999999999999998 2.4611335639196166 L-14.875 2.695589107296849 L-14.875 2.695589107296849 z"/>
<path fill="#000000" stroke="#000000" d="M-13.124999999999998 2.695589107296849 L-13.999999999999998 2.4611335639196166 L-14.875 2.695589107296849 L-15.515544456622766 3.336133563919616 L-15.75 4.211133563919617 L-15.515544456622766 5.086133563919616 L-14.874999999999998 5.726678020542384 L-13.999999999999998 5.961133563919616 L-13.124999999999998 5.726678020542384 L-12.484455543377232 5.086133563919616 L-12.25 4.211133563919616 L-12.484455543377232 3.336133563919616 z"/>
<path fill="#000000" stroke="#000000" d="M-13.999999999999998 2.4611335639196166 L-13.124999999999998 2.695589107296849 L-12.484455543377232 3.336133563919616 L-12.25 4.211133563919616 L-12.484455543377232 5.086133563919616 L-13.124999999999998 5.726678020542384 L-13.999999999999998 5.961133563919616 L-14.874999999999998 5.726678020542384 L-15.515544456622766 5.086133563919616 L-15.75 4.211133563919617 L-15.515544456622766 3.336133563919616 L-14.875 2.695589107296849 z"/>
</svg>