<?xml version="1.0" encoding="UTF-8"?>
<!-- Generated by jsxcad -->
<!DOCTYPE svg PUBLIC "-//W3C//DTD SVG 1.1 Tiny//EN" "http://www.w3.org/Graphics/SVG/1.1/DTD/svg11-tiny.dtd">
<svg baseProfile="tiny" height="43.16753760662309mm" width="20.000000000000014mm" viewBox="-10.000000000000007 -33.167537606623085 20.000000000000014 43.16753760662309" version="1.1" stroke="black" stroke-width=".1" fill="none" xmlns="http://www.w3.org/2000/svg">
<path fill="#c0c0c0" stroke="#c0c0c0" d="M0.8972549009135029 0.897254900913503 L1.5997357497050257 0.6805682561575134 L2.1694186955877925 0.5048443395120943 L2.1694186955877925 0.5048443395120943 L0.8972549009135029 0.897254900913503 L0.7452113308808753 0.9441541311256421 L0.7452113308808753 0.9441541311256421 z"/>
<path fill="#c0c0c0" stroke="#c0c0c0" d="M3.0616169978683826e-16 -9 L1.4737758720545202 -8.777864028930704 L1.4737758720545202 -8.777864028930704 L0.5895103488218083 -8.91114561157228 L3.0616169978683826e-16 -9 z"/>
<path fill="#c0c0c0" stroke="#c0c0c0" d="M2.010905639359956 -8.519195965990411 L1.4737758720545202 -8.777864028930704 L1.4737758720545202 -8.777864028930704 L2.8166002903181093 -8.131193871579974 L2.8166002903181093 -8.131193871579974 z"/>
<path fill="#c0c0c0" stroke="#c0c0c0" d="M-1.4737758720545273 -8.7778640289307 L-1.4737758720545273 -8.7778640289307 L3.061616997868382e-16 -8.999999999999998 L3.061616997868382e-16 -8.999999999999998 L-0.8842655232327162 -8.86671841735842 z"/>
<path fill="#c0c0c0" stroke="#c0c0c0" d="M2.8166002903181093 -8.131193871579974 L2.8166002903181093 -8.131193871579974 L3.909157412340148 -7.117449009293669 L3.909157412340148 -7.117449009293669 L3.253623139126925 -7.725695926665452 z"/>
<path fill="#c0c0c0" stroke="#c0c0c0" d="M3.9091574123401482 -7.117449009293668 L3.9091574123401482 -7.117449009293668 L4.654368743221021 -5.826705121831975 L4.654368743221021 -5.826705121831975 L4.207241944692497 -6.601151454308991 z"/>
<path fill="#c0c0c0" stroke="#c0c0c0" d="M4.9860189859059 -4.373650467932122 L4.9860189859059 -4.373650467932122 L4.8746395609091175 -2.8873953302184288 L4.8746395609091175 -2.8873953302184288 L4.9414672159071875 -3.7791484128466446 z"/>
<path fill="#c0c0c0" stroke="#c0c0c0" d="M4.330127018922194 -1.5000000000000007 L4.656834544114348 -2.3324371981310574 L4.8746395609091175 -2.8873953302184288 L4.8746395609091175 -2.8873953302184288 L4.330127018922194 -1.5000000000000007 z"/>
<path fill="#c0c0c0" stroke="#c0c0c0" d="M4.330127018922194 -1.5000000000000007 L3.400863688854598 -0.33474064085087013 L3.400863688854598 -0.33474064085087013 L3.958421686895156 -1.0338962563403482 L4.330127018922194 -1.5000000000000007 z"/>
<path fill="#c0c0c0" stroke="#c0c0c0" d="M4.654368743221021 -5.826705121831975 L4.654368743221021 -5.826705121831975 L4.9860189859059005 -4.373650467932122 L4.9860189859059005 -4.373650467932122 L4.7870288402949726 -5.245483260272033 z"/>
<path fill="#c0c0c0" stroke="#c0c0c0" d="M0.7452113308808753 0.9441541311256421 L-0.7452113308808691 0.9441541311256428 L-0.7452113308808691 0.9441541311256428 L0.1490422661761775 0.9441541311256424 L0.7452113308808753 0.9441541311256421 z"/>
<path fill="#c0c0c0" stroke="#c0c0c0" d="M-0.7452113308808692 0.944154131125643 L-0.7452113308808692 0.944154131125643 L-2.169418695587786 0.5048443395120978 L-2.169418695587786 0.5048443395120978 L-1.314894276763636 0.7684302144802249 z"/>
<path fill="#c0c0c0" stroke="#c0c0c0" d="M-2.169418695587786 0.5048443395120978 L-3.400863688854594 -0.3347406408508661 L-3.400863688854594 -0.3347406408508661 L-2.661996692894509 0.1690103473669123 L-2.169418695587786 0.5048443395120978 z"/>
<path fill="#c0c0c0" stroke="#c0c0c0" d="M3.400863688854598 -0.3347406408508701 L3.400863688854598 -0.3347406408508701 L2.1694186955877925 0.5048443395120943 L2.1694186955877925 0.5048443395120943 L2.908285691547876 0.0010933512943156881 z"/>
<path fill="#c0c0c0" stroke="#c0c0c0" d="M-4.874639560909117 -2.8873953302184248 L-4.9860189859059 -4.373650467932119 L-4.9860189859059 -4.373650467932119 L-4.919191330907831 -3.4818973853039026 L-4.874639560909117 -2.8873953302184248 z"/>
<path fill="#c0c0c0" stroke="#c0c0c0" d="M-3.400863688854594 -0.33474064085086613 L-4.330127018922192 -1.499999999999998 L-4.330127018922192 -1.499999999999998 L-3.7725690208816336 -0.8008443845105189 L-3.400863688854594 -0.33474064085086613 z"/>
<path fill="#c0c0c0" stroke="#c0c0c0" d="M-4.330127018922192 -1.499999999999998 L-4.330127018922192 -1.499999999999998 L-4.874639560909117 -2.8873953302184248 L-4.874639560909117 -2.8873953302184248 L-4.547932035716962 -2.0549581320873687 z"/>
<path fill="#c0c0c0" stroke="#c0c0c0" d="M-4.853358888831949 -4.954872329492059 L-4.872223047996374 -4.872223047996374 L-4.9860189859059005 -4.373650467932119 L-4.9860189859059005 -4.373650467932119 L-4.872223047996374 -4.872223047996374 L-4.654368743221023 -5.82670512183197 L-4.654368743221023 -5.82670512183197 z"/>
<path fill="#c0c0c0" stroke="#c0c0c0" d="M-4.654368743221023 -5.826705121831971 L-4.654368743221023 -5.826705121831971 L-3.9091574123401522 -7.117449009293662 L-3.9091574123401522 -7.117449009293662 L-4.356284210868674 -6.343002676816647 z"/>
<path fill="#c0c0c0" stroke="#c0c0c0" d="M-2.8166002903181164 -8.131193871579969 L-2.8166002903181164 -8.131193871579969 L-1.4737758720545273 -8.7778640289307 L-1.4737758720545273 -8.7778640289307 L-2.2794705230126806 -8.389861934520262 z"/>
<path fill="#c0c0c0" stroke="#c0c0c0" d="M-3.9091574123401513 -7.117449009293663 L-3.9091574123401513 -7.117449009293663 L-2.8166002903181164 -8.131193871579969 L-2.8166002903181164 -8.131193871579969 L-3.4721345635313376 -7.5229469542081855 z"/>
<path fill="#c0c0c0" stroke="#c0c0c0" d="M-10 10 L10 10 L10 10 L-10 10 z"/>
<path fill="#c0c0c0" stroke="#c0c0c0" d="M-10 -10 L-10 10 L-10 10 L-10 -10 z"/>
<path fill="#c0c0c0" stroke="#c0c0c0" d="M10 -10 L-10 -10 L-10 -10 L10 -10 z"/>
<path fill="#c0c0c0" stroke="#c0c0c0" d="M10 10 L10 -10 L10 -10 L10 10 z"/>
<path fill="#c0c0c0" stroke="#c0c0c0" d="M10 -9.999999999999998 L-10 -9.999999999999998 L-10 9.999999999999998 L10 9.999999999999998 M0.5895103488218083 -8.911145611572278 L1.4737758720545204 -8.777864028930702 L2.010905639359956 -8.51919596599041 L2.8166002903181098 -8.131193871579972 L3.253623139126925 -7.725695926665451 L3.9091574123401482 -7.117449009293668 L4.2072419446924965 -6.601151454308991 L4.654368743221021 -5.826705121831975 L4.7870288402949726 -5.245483260272033 L4.9860189859059005 -4.373650467932122 L4.9414672159071875 -3.7791484128466446 L4.874639560909118 -2.8873953302184288 L4.656834544114348 -2.3324371981310574 L4.3301270189221945 -1.5000000000000007 L3.958421686895156 -1.0338962563403484 L3.4008636888545984 -0.33474064085087013 L2.908285691547876 0.001093351294315603 L2.169418695587793 0.5048443395120942 L1.599735749705026 0.6805682561575134 L0.897254900913503 0.897254900913503 L0.7452113308808754 0.944154131125642 L0.14904226617617752 0.9441541311256423 L-0.7452113308808693 0.9441541311256427 L-1.314894276763636 0.7684302144802249 L-2.1694186955877863 0.5048443395120977 L-2.6619966928945096 0.1690103473669122 L-3.4008636888545944 -0.33474064085086613 L-3.7725690208816336 -0.8008443845105189 L-4.330127018922193 -1.499999999999998 L-4.547932035716962 -2.0549581320873687 L-4.8746395609091175 -2.8873953302184248 L-4.919191330907831 -3.4818973853039026 L-4.9860189859059005 -4.373650467932119 L-4.872223047996374 -4.872223047996374 L-4.853358888831949 -4.954872329492059 L-4.654368743221023 -5.826705121831971 L-4.356284210868674 -6.343002676816647 L-3.9091574123401522 -7.117449009293662 L-3.472134563531338 -7.522946954208185 L-2.816600290318117 -8.131193871579969 L-2.279470523012681 -8.389861934520262 L-1.4737758720545275 -8.7778640289307 L-0.8842655232327163 -8.866718417358419 L3.061616997868383e-16 -8.999999999999998 z"/>
<path fill="#c0c0c0" stroke="#c0c0c0" d="M-10 -9.999999999999998 L10 -9.999999999999998 L10 9.999999999999998 L-10 9.999999999999998 M1.4737758720545204 -8.777864028930702 L3.061616997868383e-16 -8.999999999999998 L-1.4737758720545275 -8.777864028930699 L-2.816600290318117 -8.131193871579969 L-3.9091574123401522 -7.117449009293662 L-4.654368743221023 -5.826705121831971 L-4.872223047996374 -4.872223047996374 L-4.9860189859059005 -4.373650467932119 L-4.8746395609091175 -2.8873953302184248 L-4.330127018922193 -1.499999999999998 L-3.4008636888545944 -0.33474064085086613 L-2.1694186955877863 0.5048443395120977 L-0.7452113308808693 0.9441541311256428 L0.7452113308808754 0.944154131125642 L0.897254900913503 0.8972549009135029 L2.169418695587793 0.5048443395120942 L3.4008636888545984 -0.33474064085087013 L4.3301270189221945 -1.5000000000000007 L4.874639560909118 -2.8873953302184288 L4.9860189859059005 -4.373650467932121 L4.654368743221021 -5.826705121831975 L3.9091574123401482 -7.117449009293667 L2.8166002903181098 -8.131193871579972 z"/>
<path fill="#b0e0e6" stroke="#b0e0e6" d="M1.4737758720545202 -8.777864028930704 L1.4737758720545202 -8.777864028930704 L3.0616169978683826e-16 -9 L3.0616169978683826e-16 -9 z"/>
<path fill="#b0e0e6" stroke="#b0e0e6" d="M2.8166002903181093 -8.131193871579974 L2.8166002903181093 -8.131193871579974 L1.4737758720545202 -8.777864028930704 L1.4737758720545202 -8.777864028930704 z"/>
<path fill="#b0e0e6" stroke="#b0e0e6" d="M3.0616169978683826e-16 -8.999999999999998 L3.0616169978683826e-16 -8.999999999999998 L-1.4737758720545273 -8.7778640289307 L-1.4737758720545273 -8.7778640289307 z"/>
<path fill="#b0e0e6" stroke="#b0e0e6" d="M3.909157412340148 -7.117449009293669 L3.909157412340148 -7.117449009293669 L2.8166002903181093 -8.131193871579974 L2.8166002903181093 -8.131193871579974 z"/>
<path fill="#b0e0e6" stroke="#b0e0e6" d="M4.654368743221021 -5.826705121831975 L4.654368743221021 -5.826705121831975 L3.9091574123401487 -7.117449009293667 L3.9091574123401487 -7.117449009293667 z"/>
<path fill="#b0e0e6" stroke="#b0e0e6" d="M4.8746395609091175 -2.8873953302184288 L4.8746395609091175 -2.8873953302184288 L4.9860189859059 -4.373650467932121 L4.9860189859059 -4.373650467932121 z"/>
<path fill="#b0e0e6" stroke="#b0e0e6" d="M4.330127018922194 -1.5000000000000007 L4.330127018922194 -1.5000000000000007 L4.8746395609091175 -2.8873953302184288 L4.8746395609091175 -2.8873953302184288 z"/>
<path fill="#b0e0e6" stroke="#b0e0e6" d="M3.400863688854598 -0.33474064085087013 L3.400863688854598 -0.33474064085087013 L4.330127018922194 -1.5000000000000004 L4.330127018922194 -1.5000000000000004 z"/>
<path fill="#b0e0e6" stroke="#b0e0e6" d="M4.9860189859059005 -4.373650467932122 L4.9860189859059005 -4.373650467932122 L4.654368743221021 -5.826705121831975 L4.654368743221021 -5.826705121831975 z"/>
<path fill="#b0e0e6" stroke="#b0e0e6" d="M-0.7452113308808692 0.9441541311256428 L-0.7452113308808692 0.9441541311256428 L0.7452113308808753 0.9441541311256421 L0.7452113308808753 0.9441541311256421 z"/>
<path fill="#b0e0e6" stroke="#b0e0e6" d="M-2.169418695587786 0.5048443395120978 L-2.169418695587786 0.5048443395120978 L-0.7452113308808692 0.944154131125643 L-0.7452113308808692 0.944154131125643 z"/>
<path fill="#b0e0e6" stroke="#b0e0e6" d="M-3.4008636888545936 -0.3347406408508658 L-3.4008636888545936 -0.3347406408508658 L-2.169418695587786 0.504844339512098 L-2.169418695587786 0.504844339512098 z"/>
<path fill="#b0e0e6" stroke="#b0e0e6" d="M2.1694186955877925 0.5048443395120944 L2.1694186955877925 0.5048443395120944 L3.400863688854598 -0.33474064085087 L3.400863688854598 -0.33474064085087 z"/>
<path fill="#b0e0e6" stroke="#b0e0e6" d="M0.7452113308808753 0.9441541311256421 L0.7452113308808753 0.9441541311256421 L2.1694186955877925 0.5048443395120943 L2.1694186955877925 0.5048443395120943 z"/>
<path fill="#b0e0e6" stroke="#b0e0e6" d="M-4.9860189859059 -4.373650467932119 L-4.9860189859059 -4.373650467932119 L-4.874639560909117 -2.8873953302184248 L-4.874639560909117 -2.8873953302184248 z"/>
<path fill="#b0e0e6" stroke="#b0e0e6" d="M-4.330127018922192 -1.499999999999998 L-4.330127018922192 -1.499999999999998 L-3.400863688854594 -0.33474064085086613 L-3.400863688854594 -0.33474064085086613 z"/>
<path fill="#b0e0e6" stroke="#b0e0e6" d="M-4.874639560909117 -2.8873953302184248 L-4.874639560909117 -2.8873953302184248 L-4.330127018922192 -1.499999999999998 L-4.330127018922192 -1.499999999999998 z"/>
<path fill="#b0e0e6" stroke="#b0e0e6" d="M-4.654368743221023 -5.82670512183197 L-4.654368743221023 -5.82670512183197 L-4.9860189859059005 -4.373650467932119 L-4.9860189859059005 -4.373650467932119 z"/>
<path fill="#b0e0e6" stroke="#b0e0e6" d="M-3.9091574123401527 -7.1174490092936615 L-3.9091574123401527 -7.1174490092936615 L-4.654368743221023 -5.826705121831971 L-4.654368743221023 -5.826705121831971 z"/>
<path fill="#b0e0e6" stroke="#b0e0e6" d="M-1.4737758720545273 -8.7778640289307 L-1.4737758720545273 -8.7778640289307 L-2.8166002903181164 -8.131193871579969 L-2.8166002903181164 -8.131193871579969 z"/>
<path fill="#b0e0e6" stroke="#b0e0e6" d="M-2.8166002903181164 -8.131193871579969 L-2.8166002903181164 -8.131193871579969 L-3.909157412340152 -7.117449009293663 L-3.909157412340152 -7.117449009293663 z"/>
<path fill="#b0e0e6" stroke="#b0e0e6" d="M1.4737758720545204 -8.777864028930702 L3.061616997868383e-16 -8.999999999999998 L-1.4737758720545275 -8.7778640289307 L-2.816600290318117 -8.131193871579969 L-3.9091574123401522 -7.1174490092936615 L-4.654368743221023 -5.826705121831971 L-4.9860189859059005 -4.373650467932119 L-4.8746395609091175 -2.8873953302184248 L-4.330127018922193 -1.499999999999998 L-3.4008636888545944 -0.33474064085086613 L-2.1694186955877863 0.5048443395120977 L-0.7452113308808693 0.9441541311256428 L0.7452113308808754 0.944154131125642 L2.169418695587793 0.5048443395120942 L3.4008636888545984 -0.33474064085087013 L4.3301270189221945 -1.5000000000000007 L4.874639560909118 -2.8873953302184283 L4.9860189859059005 -4.373650467932122 L4.654368743221021 -5.826705121831975 L3.9091574123401482 -7.117449009293668 L2.8166002903181098 -8.131193871579972 z"/>
<path fill="#b0e0e6" stroke="#b0e0e6" d="M1.4737758720545204 -8.777864028930702 L2.8166002903181098 -8.131193871579972 L3.9091574123401482 -7.117449009293668 L4.654368743221021 -5.826705121831975 L4.9860189859059005 -4.373650467932122 L4.874639560909118 -2.8873953302184283 L4.3301270189221945 -1.5000000000000007 L3.4008636888545984 -0.33474064085087013 L2.169418695587793 0.5048443395120942 L0.7452113308808754 0.944154131125642 L-0.7452113308808693 0.9441541311256428 L-2.1694186955877863 0.5048443395120977 L-3.4008636888545944 -0.33474064085086613 L-4.330127018922193 -1.499999999999998 L-4.8746395609091175 -2.8873953302184248 L-4.9860189859059005 -4.373650467932119 L-4.654368743221023 -5.826705121831971 L-3.9091574123401522 -7.1174490092936615 L-2.816600290318117 -8.131193871579969 L-1.4737758720545275 -8.7778640289307 L3.061616997868383e-16 -8.999999999999998 z"/>
<path fill="#c0c0c0" stroke="#c0c0c0" d="M0.8972549009135029 0.897254900913503 L1.5997357497050257 0.6805682561575134 L2.1694186955877925 0.5048443395120943 L2.1694186955877925 0.5048443395120943 L0.8972549009135029 0.897254900913503 L0.7452113308808753 0.9441541311256421 L0.7452113308808753 0.9441541311256421 z"/>
<path fill="#c0c0c0" stroke="#c0c0c0" d="M3.0616169978683826e-16 -9 L1.4737758720545202 -8.777864028930704 L1.4737758720545202 -8.777864028930704 L0.5895103488218083 -8.91114561157228 L3.0616169978683826e-16 -9 z"/>
<path fill="#c0c0c0" stroke="#c0c0c0" d="M2.010905639359956 -8.519195965990411 L1.4737758720545202 -8.777864028930704 L1.4737758720545202 -8.777864028930704 L2.8166002903181093 -8.131193871579974 L2.8166002903181093 -8.131193871579974 z"/>
<path fill="#c0c0c0" stroke="#c0c0c0" d="M-1.4737758720545273 -8.7778640289307 L-1.4737758720545273 -8.7778640289307 L3.061616997868382e-16 -8.999999999999998 L3.061616997868382e-16 -8.999999999999998 L-0.8842655232327162 -8.86671841735842 z"/>
<path fill="#c0c0c0" stroke="#c0c0c0" d="M2.8166002903181093 -8.131193871579974 L2.8166002903181093 -8.131193871579974 L3.909157412340148 -7.117449009293669 L3.909157412340148 -7.117449009293669 L3.253623139126925 -7.725695926665452 z"/>
<path fill="#c0c0c0" stroke="#c0c0c0" d="M3.9091574123401482 -7.117449009293668 L3.9091574123401482 -7.117449009293668 L4.654368743221021 -5.826705121831975 L4.654368743221021 -5.826705121831975 L4.207241944692497 -6.601151454308991 z"/>
<path fill="#c0c0c0" stroke="#c0c0c0" d="M4.9860189859059 -4.373650467932122 L4.9860189859059 -4.373650467932122 L4.8746395609091175 -2.8873953302184288 L4.8746395609091175 -2.8873953302184288 L4.9414672159071875 -3.7791484128466446 z"/>
<path fill="#c0c0c0" stroke="#c0c0c0" d="M4.330127018922194 -1.5000000000000007 L4.656834544114348 -2.3324371981310574 L4.8746395609091175 -2.8873953302184288 L4.8746395609091175 -2.8873953302184288 L4.330127018922194 -1.5000000000000007 z"/>
<path fill="#c0c0c0" stroke="#c0c0c0" d="M4.330127018922194 -1.5000000000000007 L3.400863688854598 -0.33474064085087013 L3.400863688854598 -0.33474064085087013 L3.958421686895156 -1.0338962563403482 L4.330127018922194 -1.5000000000000007 z"/>
<path fill="#c0c0c0" stroke="#c0c0c0" d="M4.654368743221021 -5.826705121831975 L4.654368743221021 -5.826705121831975 L4.9860189859059005 -4.373650467932122 L4.9860189859059005 -4.373650467932122 L4.7870288402949726 -5.245483260272033 z"/>
<path fill="#c0c0c0" stroke="#c0c0c0" d="M0.7452113308808753 0.9441541311256421 L-0.7452113308808691 0.9441541311256428 L-0.7452113308808691 0.9441541311256428 L0.1490422661761775 0.9441541311256424 L0.7452113308808753 0.9441541311256421 z"/>
<path fill="#c0c0c0" stroke="#c0c0c0" d="M-0.7452113308808692 0.944154131125643 L-0.7452113308808692 0.944154131125643 L-2.169418695587786 0.5048443395120978 L-2.169418695587786 0.5048443395120978 L-1.314894276763636 0.7684302144802249 z"/>
<path fill="#c0c0c0" stroke="#c0c0c0" d="M-2.169418695587786 0.5048443395120978 L-3.400863688854594 -0.3347406408508661 L-3.400863688854594 -0.3347406408508661 L-2.661996692894509 0.1690103473669123 L-2.169418695587786 0.5048443395120978 z"/>
<path fill="#c0c0c0" stroke="#c0c0c0" d="M3.400863688854598 -0.3347406408508701 L3.400863688854598 -0.3347406408508701 L2.1694186955877925 0.5048443395120943 L2.1694186955877925 0.5048443395120943 L2.908285691547876 0.0010933512943156881 z"/>
<path fill="#c0c0c0" stroke="#c0c0c0" d="M-4.874639560909117 -2.8873953302184248 L-4.9860189859059 -4.373650467932119 L-4.9860189859059 -4.373650467932119 L-4.919191330907831 -3.4818973853039026 L-4.874639560909117 -2.8873953302184248 z"/>
<path fill="#c0c0c0" stroke="#c0c0c0" d="M-3.400863688854594 -0.33474064085086613 L-4.330127018922192 -1.499999999999998 L-4.330127018922192 -1.499999999999998 L-3.7725690208816336 -0.8008443845105189 L-3.400863688854594 -0.33474064085086613 z"/>
<path fill="#c0c0c0" stroke="#c0c0c0" d="M-4.330127018922192 -1.499999999999998 L-4.330127018922192 -1.499999999999998 L-4.874639560909117 -2.8873953302184248 L-4.874639560909117 -2.8873953302184248 L-4.547932035716962 -2.0549581320873687 z"/>
<path fill="#c0c0c0" stroke="#c0c0c0" d="M-4.853358888831949 -4.954872329492059 L-4.872223047996374 -4.872223047996374 L-4.9860189859059005 -4.373650467932119 L-4.9860189859059005 -4.373650467932119 L-4.872223047996374 -4.872223047996374 L-4.654368743221023 -5.82670512183197 L-4.654368743221023 -5.82670512183197 z"/>
<path fill="#c0c0c0" stroke="#c0c0c0" d="M-4.654368743221023 -5.826705121831971 L-4.654368743221023 -5.826705121831971 L-3.9091574123401522 -7.117449009293662 L-3.9091574123401522 -7.117449009293662 L-4.356284210868674 -6.343002676816647 z"/>
<path fill="#c0c0c0" stroke="#c0c0c0" d="M-2.8166002903181164 -8.131193871579969 L-2.8166002903181164 -8.131193871579969 L-1.4737758720545273 -8.7778640289307 L-1.4737758720545273 -8.7778640289307 L-2.2794705230126806 -8.389861934520262 z"/>
<path fill="#c0c0c0" stroke="#c0c0c0" d="M-3.9091574123401513 -7.117449009293663 L-3.9091574123401513 -7.117449009293663 L-2.8166002903181164 -8.131193871579969 L-2.8166002903181164 -8.131193871579969 L-3.4721345635313376 -7.5229469542081855 z"/>
<path fill="#c0c0c0" stroke="#c0c0c0" d="M-10 10 L10 10 L10 10 L-10 10 z"/>
<path fill="#c0c0c0" stroke="#c0c0c0" d="M-10 -10 L-10 10 L-10 10 L-10 -10 z"/>
<path fill="#c0c0c0" stroke="#c0c0c0" d="M10 -10 L-10 -10 L-10 -10 L10 -10 z"/>
<path fill="#c0c0c0" stroke="#c0c0c0" d="M10 10 L10 -10 L10 -10 L10 10 z"/>
<path fill="#c0c0c0" stroke="#c0c0c0" d="M10 -9.999999999999998 L-10 -9.999999999999998 L-10 9.999999999999998 L10 9.999999999999998 M0.5895103488218083 -8.911145611572278 L1.4737758720545204 -8.777864028930702 L2.010905639359956 -8.51919596599041 L2.8166002903181098 -8.131193871579972 L3.253623139126925 -7.725695926665451 L3.9091574123401482 -7.117449009293668 L4.2072419446924965 -6.601151454308991 L4.654368743221021 -5.826705121831975 L4.7870288402949726 -5.245483260272033 L4.9860189859059005 -4.373650467932122 L4.9414672159071875 -3.7791484128466446 L4.874639560909118 -2.8873953302184288 L4.656834544114348 -2.3324371981310574 L4.3301270189221945 -1.5000000000000007 L3.958421686895156 -1.0338962563403484 L3.4008636888545984 -0.33474064085087013 L2.908285691547876 0.001093351294315603 L2.169418695587793 0.5048443395120942 L1.599735749705026 0.6805682561575134 L0.897254900913503 0.897254900913503 L0.7452113308808754 0.944154131125642 L0.14904226617617752 0.9441541311256423 L-0.7452113308808693 0.9441541311256427 L-1.314894276763636 0.7684302144802249 L-2.1694186955877863 0.5048443395120977 L-2.6619966928945096 0.1690103473669122 L-3.4008636888545944 -0.33474064085086613 L-3.7725690208816336 -0.8008443845105189 L-4.330127018922193 -1.499999999999998 L-4.547932035716962 -2.0549581320873687 L-4.8746395609091175 -2.8873953302184248 L-4.919191330907831 -3.4818973853039026 L-4.9860189859059005 -4.373650467932119 L-4.872223047996374 -4.872223047996374 L-4.853358888831949 -4.954872329492059 L-4.654368743221023 -5.826705121831971 L-4.356284210868674 -6.343002676816647 L-3.9091574123401522 -7.117449009293662 L-3.472134563531338 -7.522946954208185 L-2.816600290318117 -8.131193871579969 L-2.279470523012681 -8.389861934520262 L-1.4737758720545275 -8.7778640289307 L-0.8842655232327163 -8.866718417358419 L3.061616997868383e-16 -8.999999999999998 z"/>
<path fill="#c0c0c0" stroke="#c0c0c0" d="M-10 -9.999999999999998 L10 -9.999999999999998 L10 9.999999999999998 L-10 9.999999999999998 M1.4737758720545204 -8.777864028930702 L3.061616997868383e-16 -8.999999999999998 L-1.4737758720545275 -8.777864028930699 L-2.816600290318117 -8.131193871579969 L-3.9091574123401522 -7.117449009293662 L-4.654368743221023 -5.826705121831971 L-4.872223047996374 -4.872223047996374 L-4.9860189859059005 -4.373650467932119 L-4.8746395609091175 -2.8873953302184248 L-4.330127018922193 -1.499999999999998 L-3.4008636888545944 -0.33474064085086613 L-2.1694186955877863 0.5048443395120977 L-0.7452113308808693 0.9441541311256428 L0.7452113308808754 0.944154131125642 L0.897254900913503 0.8972549009135029 L2.169418695587793 0.5048443395120942 L3.4008636888545984 -0.33474064085087013 L4.3301270189221945 -1.5000000000000007 L4.874639560909118 -2.8873953302184288 L4.9860189859059005 -4.373650467932121 L4.654368743221021 -5.826705121831975 L3.9091574123401482 -7.117449009293667 L2.8166002903181098 -8.131193871579972 z"/>
<path fill="#b0e0e6" stroke="#b0e0e6" d="M1.4737758720545202 23.445519446566728 L1.4737758720545202 23.445519446566728 L3.0616169978683826e-16 23.22338347549743 L3.0616169978683826e-16 23.22338347549743 z"/>
<path fill="#b0e0e6" stroke="#b0e0e6" d="M2.8166002903181093 24.092189603917458 L2.8166002903181093 24.092189603917458 L1.4737758720545202 23.445519446566728 L1.4737758720545202 23.445519446566728 z"/>
<path fill="#b0e0e6" stroke="#b0e0e6" d="M3.0616169978683826e-16 23.223383475497435 L3.0616169978683826e-16 23.223383475497435 L-1.4737758720545273 23.44551944656673 L-1.4737758720545273 23.44551944656673 z"/>
<path fill="#b0e0e6" stroke="#b0e0e6" d="M3.909157412340148 25.105934466203763 L3.909157412340148 25.105934466203763 L2.8166002903181093 24.092189603917458 L2.8166002903181093 24.092189603917458 z"/>
<path fill="#b0e0e6" stroke="#b0e0e6" d="M4.654368743221019 26.396678353665454 L4.654368743221019 26.396678353665454 L3.9091574123401474 25.105934466203763 L3.9091574123401474 25.105934466203763 z"/>
<path fill="#b0e0e6" stroke="#b0e0e6" d="M4.874639560909118 29.335988145279003 L4.874639560909118 29.335988145279003 L4.9860189859059005 27.849733007565312 L4.9860189859059005 27.849733007565312 z"/>
<path fill="#b0e0e6" stroke="#b0e0e6" d="M4.330127018922195 30.723383475497428 L4.330127018922195 30.723383475497428 L4.874639560909119 29.335988145279 L4.874639560909119 29.335988145279 z"/>
<path fill="#b0e0e6" stroke="#b0e0e6" d="M3.400863688854601 31.88864283464656 L3.400863688854601 31.88864283464656 L4.330127018922197 30.723383475497428 L4.330127018922197 30.723383475497428 z"/>
<path fill="#b0e0e6" stroke="#b0e0e6" d="M4.9860189859059 27.84973300756531 L4.9860189859059 27.84973300756531 L4.65436874322102 26.396678353665457 L4.65436874322102 26.396678353665457 z"/>
<path fill="#b0e0e6" stroke="#b0e0e6" d="M-0.7452113308808692 33.16753760662307 L-0.7452113308808692 33.16753760662307 L0.7452113308808753 33.16753760662307 L0.7452113308808753 33.16753760662307 z"/>
<path fill="#b0e0e6" stroke="#b0e0e6" d="M-2.169418695587786 32.72822781500953 L-2.169418695587786 32.72822781500953 L-0.7452113308808692 33.16753760662308 L-0.7452113308808692 33.16753760662308 z"/>
<path fill="#b0e0e6" stroke="#b0e0e6" d="M-3.4008636888545936 31.888642834646568 L-3.4008636888545936 31.888642834646568 L-2.169418695587786 32.72822781500953 L-2.169418695587786 32.72822781500953 z"/>
<path fill="#b0e0e6" stroke="#b0e0e6" d="M2.1694186955877925 32.728227815009525 L2.1694186955877925 32.728227815009525 L3.400863688854598 31.888642834646564 L3.400863688854598 31.888642834646564 z"/>
<path fill="#b0e0e6" stroke="#b0e0e6" d="M0.7452113308808753 33.16753760662307 L0.7452113308808753 33.16753760662307 L2.1694186955877925 32.728227815009525 L2.1694186955877925 32.728227815009525 z"/>
<path fill="#b0e0e6" stroke="#b0e0e6" d="M-4.9860189859059005 27.849733007565312 L-4.9860189859059005 27.849733007565312 L-4.8746395609091175 29.335988145279007 L-4.8746395609091175 29.335988145279007 z"/>
<path fill="#b0e0e6" stroke="#b0e0e6" d="M-4.3301270189221945 30.72338347549743 L-4.3301270189221945 30.72338347549743 L-3.400863688854596 31.888642834646564 L-3.400863688854596 31.888642834646564 z"/>
<path fill="#b0e0e6" stroke="#b0e0e6" d="M-4.874639560909119 29.335988145279003 L-4.874639560909119 29.335988145279003 L-4.330127018922194 30.72338347549743 L-4.330127018922194 30.72338347549743 z"/>
<path fill="#b0e0e6" stroke="#b0e0e6" d="M-4.654368743221022 26.39667835366546 L-4.654368743221022 26.39667835366546 L-4.9860189859059 27.84973300756531 L-4.9860189859059 27.84973300756531 z"/>
<path fill="#b0e0e6" stroke="#b0e0e6" d="M-3.909157412340151 25.105934466203767 L-3.909157412340151 25.105934466203767 L-4.654368743221022 26.39667835366546 L-4.654368743221022 26.39667835366546 z"/>
<path fill="#b0e0e6" stroke="#b0e0e6" d="M-1.4737758720545273 23.44551944656673 L-1.4737758720545273 23.44551944656673 L-2.8166002903181164 24.092189603917465 L-2.8166002903181164 24.092189603917465 z"/>
<path fill="#b0e0e6" stroke="#b0e0e6" d="M-2.8166002903181164 24.092189603917465 L-2.8166002903181164 24.092189603917465 L-3.909157412340152 25.10593446620377 L-3.909157412340152 25.10593446620377 z"/>
<path fill="#b0e0e6" stroke="#b0e0e6" d="M1.4737758720545204 23.445519446566728 L3.061616997868383e-16 23.22338347549743 L-1.4737758720545275 23.445519446566728 L-2.816600290318117 24.09218960391746 L-3.9091574123401522 25.105934466203767 L-4.654368743221023 26.39667835366546 L-4.9860189859059005 27.849733007565312 L-4.8746395609091175 29.335988145279007 L-4.330127018922193 30.723383475497435 L-3.4008636888545944 31.888642834646564 L-2.1694186955877863 32.728227815009525 L-0.7452113308808693 33.16753760662307 L0.7452113308808754 33.16753760662307 L2.169418695587793 32.728227815009525 L3.4008636888545984 31.88864283464656 L4.3301270189221945 30.723383475497428 L4.874639560909118 29.335988145279 L4.9860189859059005 27.84973300756531 L4.654368743221021 26.396678353665454 L3.9091574123401482 25.105934466203763 L2.8166002903181098 24.092189603917458 z"/>
<path fill="#b0e0e6" stroke="#b0e0e6" d="M1.4737758720545204 23.445519446566728 L2.8166002903181098 24.092189603917458 L3.9091574123401482 25.105934466203763 L4.654368743221021 26.396678353665454 L4.9860189859059005 27.84973300756531 L4.874639560909118 29.335988145279 L4.3301270189221945 30.723383475497428 L3.4008636888545984 31.88864283464656 L2.169418695587793 32.728227815009525 L0.7452113308808754 33.16753760662307 L-0.7452113308808693 33.16753760662307 L-2.1694186955877863 32.728227815009525 L-3.4008636888545944 31.888642834646564 L-4.330127018922193 30.723383475497435 L-4.8746395609091175 29.335988145279007 L-4.9860189859059005 27.849733007565312 L-4.654368743221023 26.39667835366546 L-3.9091574123401522 25.105934466203767 L-2.816600290318117 24.09218960391746 L-1.4737758720545275 23.445519446566728 L3.061616997868383e-16 23.22338347549743 z"/>
</svg>