<?xml version="1.0" encoding="UTF-8"?>
<!-- Generated by jsxcad -->
<!DOCTYPE svg PUBLIC "-//W3C//DTD SVG 1.1 Tiny//EN" "http://www.w3.org/Graphics/SVG/1.1/DTD/svg11-tiny.dtd">
<svg baseProfile="tiny" height="20.000000000000014mm" width="20.000000000000014mm" viewBox="-10.000000000000007 -10.000000000000007 20.000000000000014 20.000000000000014" version="1.1" stroke="black" stroke-width=".1" fill="none" xmlns="http://www.w3.org/2000/svg">
<path fill="#c0c0c0" stroke="#c0c0c0" d="M3.0616169978683826e-16 -5 L1.4737758720545202 -4.777864028930704 L1.4737758720545202 -4.777864028930704 L0.5895103488218083 -4.911145611572281 L3.0616169978683826e-16 -5 z"/>
<path fill="#c0c0c0" stroke="#c0c0c0" d="M2.010905639359956 -4.519195965990412 L1.4737758720545202 -4.777864028930704 L1.4737758720545202 -4.777864028930704 L2.8166002903181093 -4.131193871579974 L2.8166002903181093 -4.131193871579974 z"/>
<path fill="#c0c0c0" stroke="#c0c0c0" d="M-1.4737758720545273 -4.7778640289307015 L-1.4737758720545273 -4.7778640289307015 L3.061616997868382e-16 -4.999999999999999 L3.061616997868382e-16 -4.999999999999999 L-0.8842655232327162 -4.86671841735842 z"/>
<path fill="#c0c0c0" stroke="#c0c0c0" d="M3.253623139126925 -3.725695926665452 L2.8166002903181093 -4.131193871579974 L2.8166002903181093 -4.131193871579974 L3.909157412340148 -3.1174490092936686 L3.909157412340148 -3.1174490092936686 z"/>
<path fill="#c0c0c0" stroke="#c0c0c0" d="M3.9091574123401482 -3.117449009293668 L3.9091574123401482 -3.117449009293668 L4.654368743221021 -1.8267051218319759 L4.654368743221021 -1.8267051218319759 L4.2072419446924965 -2.6011514543089915 z"/>
<path fill="#c0c0c0" stroke="#c0c0c0" d="M4.9414672159071875 0.22085158715335487 L4.9860189859059 -0.37365046793212225 L4.9860189859059 -0.37365046793212225 L4.874639560909118 1.1126046697815706 L4.874639560909118 1.1126046697815706 z"/>
<path fill="#c0c0c0" stroke="#c0c0c0" d="M4.874639560909118 1.1126046697815704 L4.3301270189221945 2.4999999999999987 L4.3301270189221945 2.4999999999999987 L4.656834544114348 1.6675628018689417 L4.874639560909118 1.1126046697815704 z"/>
<path fill="#c0c0c0" stroke="#c0c0c0" d="M3.5181664052673915 3.518166405267391 L3.9584216868951563 2.9661037436596507 L4.3301270189221945 2.4999999999999982 L4.3301270189221945 2.4999999999999982 L3.5181664052673915 3.518166405267391 L3.4008636888545984 3.6652593591491294 L3.4008636888545984 3.6652593591491294 z"/>
<path fill="#c0c0c0" stroke="#c0c0c0" d="M4.654368743221021 -1.8267051218319759 L4.9860189859059005 -0.3736504679321223 L4.9860189859059005 -0.3736504679321223 L4.7870288402949726 -1.2454832602720343 L4.654368743221021 -1.8267051218319759 z"/>
<path fill="#c0c0c0" stroke="#c0c0c0" d="M0.7452113308808753 4.944154131125642 L-0.7452113308808691 4.944154131125642 L-0.7452113308808691 4.944154131125642 L0.1490422661761775 4.944154131125642 L0.7452113308808753 4.944154131125642 z"/>
<path fill="#c0c0c0" stroke="#c0c0c0" d="M-0.7452113308808692 4.944154131125643 L-0.7452113308808692 4.944154131125643 L-2.169418695587786 4.504844339512098 L-2.169418695587786 4.504844339512098 L-1.314894276763636 4.768430214480224 z"/>
<path fill="#c0c0c0" stroke="#c0c0c0" d="M-2.169418695587786 4.504844339512098 L-3.400863688854594 3.665259359149134 L-3.400863688854594 3.665259359149134 L-2.661996692894509 4.169010347366912 L-2.169418695587786 4.504844339512098 z"/>
<path fill="#c0c0c0" stroke="#c0c0c0" d="M3.400863688854598 3.66525935914913 L3.400863688854598 3.66525935914913 L2.1694186955877925 4.504844339512094 L2.1694186955877925 4.504844339512094 L2.908285691547876 4.001093351294315 z"/>
<path fill="#c0c0c0" stroke="#c0c0c0" d="M2.1694186955877925 4.504844339512094 L0.7452113308808753 4.944154131125642 L0.7452113308808753 4.944154131125642 L1.5997357497050257 4.680568256157513 L2.1694186955877925 4.504844339512094 z"/>
<path fill="#c0c0c0" stroke="#c0c0c0" d="M-4.8746395609091175 1.1126046697815746 L-4.9860189859059 -0.3736504679321198 L-4.9860189859059 -0.3736504679321198 L-4.919191330907831 0.5181026146960969 L-4.8746395609091175 1.1126046697815746 z"/>
<path fill="#c0c0c0" stroke="#c0c0c0" d="M-3.4008636888545944 3.6652593591491334 L-4.330127018922193 2.5000000000000013 L-4.330127018922193 2.5000000000000013 L-3.7725690208816336 3.1991556154894805 L-3.4008636888545944 3.6652593591491334 z"/>
<path fill="#c0c0c0" stroke="#c0c0c0" d="M-4.330127018922193 2.5000000000000013 L-4.330127018922193 2.5000000000000013 L-4.8746395609091175 1.1126046697815746 L-4.8746395609091175 1.1126046697815746 L-4.547932035716962 1.9450418679126307 z"/>
<path fill="#c0c0c0" stroke="#c0c0c0" d="M-4.9860189859059005 -0.3736504679321198 L-4.9860189859059005 -0.3736504679321198 L-4.654368743221023 -1.8267051218319708 L-4.654368743221023 -1.8267051218319708 L-4.853358888831949 -0.9548723294920602 z"/>
<path fill="#c0c0c0" stroke="#c0c0c0" d="M-4.356284210868674 -2.3430026768166474 L-4.654368743221023 -1.8267051218319708 L-4.654368743221023 -1.8267051218319708 L-3.9091574123401522 -3.117449009293663 L-3.9091574123401522 -3.117449009293663 z"/>
<path fill="#c0c0c0" stroke="#c0c0c0" d="M-2.8166002903181164 -4.13119387157997 L-2.8166002903181164 -4.13119387157997 L-1.4737758720545273 -4.7778640289307015 L-1.4737758720545273 -4.7778640289307015 L-2.2794705230126806 -4.389861934520262 z"/>
<path fill="#c0c0c0" stroke="#c0c0c0" d="M-3.4721345635313376 -3.522946954208186 L-3.498491391628419 -3.498491391628419 L-3.909157412340152 -3.1174490092936633 L-3.909157412340152 -3.1174490092936633 L-3.498491391628419 -3.498491391628419 L-2.8166002903181164 -4.13119387157997 L-2.8166002903181164 -4.13119387157997 z"/>
<path fill="#c0c0c0" stroke="#c0c0c0" d="M-10 -9.999999999999998 L10 -9.999999999999998 L10 9.999999999999998 L-10 9.999999999999998 M1.4737758720545204 -4.777864028930703 L3.061616997868383e-16 -4.999999999999999 L-1.4737758720545275 -4.777864028930701 L-2.816600290318117 -4.131193871579969 L-3.498491391628419 -3.4984913916284186 L-3.9091574123401522 -3.117449009293663 L-4.654368743221023 -1.8267051218319708 L-4.9860189859059005 -0.3736504679321198 L-4.8746395609091175 1.1126046697815746 L-4.330127018922193 2.5000000000000013 L-3.4008636888545944 3.6652593591491334 L-2.1694186955877863 4.504844339512097 L-0.7452113308808693 4.944154131125642 L0.7452113308808754 4.944154131125641 L2.169418695587793 4.504844339512093 L3.4008636888545984 3.665259359149129 L3.518166405267391 3.5181664052673907 L4.3301270189221945 2.4999999999999987 L4.874639560909118 1.1126046697815706 L4.9860189859059005 -0.3736504679321223 L4.654368743221021 -1.8267051218319759 L3.9091574123401482 -3.117449009293668 L2.8166002903181098 -4.131193871579973 z"/>
<path fill="#c0c0c0" stroke="#c0c0c0" d="M10 -9.999999999999998 L-10 -9.999999999999998 L-10 9.999999999999998 L10 9.999999999999998 M3.061616997868383e-16 -4.999999999999999 L0.5895103488218083 -4.911145611572281 L1.4737758720545204 -4.777864028930703 L2.010905639359956 -4.519195965990411 L2.8166002903181098 -4.131193871579973 L3.253623139126925 -3.7256959266654515 L3.9091574123401482 -3.117449009293668 L4.2072419446924965 -2.601151454308991 L4.654368743221021 -1.8267051218319759 L4.7870288402949726 -1.2454832602720345 L4.9860189859059005 -0.3736504679321223 L4.9414672159071875 0.22085158715335487 L4.874639560909118 1.1126046697815706 L4.656834544114348 1.6675628018689417 L4.3301270189221945 2.4999999999999987 L3.958421686895156 2.966103743659651 L3.518166405267391 3.5181664052673907 L3.4008636888545984 3.665259359149129 L2.908285691547876 4.0010933512943145 L2.169418695587793 4.504844339512093 L1.599735749705026 4.680568256157512 L0.7452113308808754 4.944154131125641 L0.14904226617617752 4.944154131125642 L-0.7452113308808693 4.944154131125642 L-1.314894276763636 4.768430214480224 L-2.1694186955877863 4.504844339512097 L-2.6619966928945096 4.169010347366911 L-3.4008636888545944 3.6652593591491334 L-3.7725690208816336 3.19915561548948 L-4.330127018922193 2.5000000000000013 L-4.547932035716962 1.945041867912631 L-4.8746395609091175 1.1126046697815746 L-4.919191330907831 0.5181026146960969 L-4.9860189859059005 -0.3736504679321198 L-4.853358888831949 -0.9548723294920601 L-4.654368743221023 -1.8267051218319708 L-4.356284210868674 -2.343002676816648 L-3.9091574123401522 -3.117449009293663 L-3.498491391628419 -3.4984913916284186 L-3.472134563531338 -3.522946954208185 L-2.816600290318117 -4.131193871579969 L-2.279470523012681 -4.389861934520262 L-1.4737758720545275 -4.777864028930701 L-0.8842655232327163 -4.86671841735842 z"/>
<path fill="#c0c0c0" stroke="#c0c0c0" d="M-10 10 L10 10 L10 10 L-10 10 z"/>
<path fill="#c0c0c0" stroke="#c0c0c0" d="M-10 -10 L-10 10 L-10 10 L-10 -10 z"/>
<path fill="#c0c0c0" stroke="#c0c0c0" d="M10 -10 L-10 -10 L-10 -10 L10 -10 z"/>
<path fill="#c0c0c0" stroke="#c0c0c0" d="M10 10 L10 -10 L10 -10 L10 10 z"/>
<path fill="#b0e0e6" stroke="#b0e0e6" d="M1.4737758720545202 -4.777864028930704 L1.4737758720545202 -4.777864028930704 L3.0616169978683826e-16 -5 L3.0616169978683826e-16 -5 z"/>
<path fill="#b0e0e6" stroke="#b0e0e6" d="M2.8166002903181093 -4.131193871579974 L2.8166002903181093 -4.131193871579974 L1.4737758720545202 -4.777864028930704 L1.4737758720545202 -4.777864028930704 z"/>
<path fill="#b0e0e6" stroke="#b0e0e6" d="M3.0616169978683826e-16 -4.999999999999999 L3.0616169978683826e-16 -4.999999999999999 L-1.4737758720545273 -4.7778640289307015 L-1.4737758720545273 -4.7778640289307015 z"/>
<path fill="#b0e0e6" stroke="#b0e0e6" d="M3.909157412340148 -3.1174490092936686 L3.909157412340148 -3.1174490092936686 L2.8166002903181093 -4.131193871579974 L2.8166002903181093 -4.131193871579974 z"/>
<path fill="#b0e0e6" stroke="#b0e0e6" d="M4.654368743221021 -1.8267051218319759 L4.654368743221021 -1.8267051218319759 L3.9091574123401482 -3.117449009293668 L3.9091574123401482 -3.117449009293668 z"/>
<path fill="#b0e0e6" stroke="#b0e0e6" d="M4.874639560909118 1.1126046697815706 L4.874639560909118 1.1126046697815706 L4.9860189859059 -0.3736504679321223 L4.9860189859059 -0.3736504679321223 z"/>
<path fill="#b0e0e6" stroke="#b0e0e6" d="M4.3301270189221945 2.4999999999999987 L4.3301270189221945 2.4999999999999987 L4.874639560909118 1.1126046697815706 L4.874639560909118 1.1126046697815706 z"/>
<path fill="#b0e0e6" stroke="#b0e0e6" d="M3.4008636888545984 3.6652593591491294 L3.4008636888545984 3.6652593591491294 L4.3301270189221945 2.4999999999999987 L4.3301270189221945 2.4999999999999987 z"/>
<path fill="#b0e0e6" stroke="#b0e0e6" d="M4.9860189859059005 -0.3736504679321223 L4.9860189859059005 -0.3736504679321223 L4.654368743221021 -1.8267051218319756 L4.654368743221021 -1.8267051218319756 z"/>
<path fill="#b0e0e6" stroke="#b0e0e6" d="M-0.7452113308808692 4.944154131125642 L-0.7452113308808692 4.944154131125642 L0.7452113308808753 4.944154131125642 L0.7452113308808753 4.944154131125642 z"/>
<path fill="#b0e0e6" stroke="#b0e0e6" d="M-2.169418695587786 4.504844339512098 L-2.169418695587786 4.504844339512098 L-0.7452113308808692 4.944154131125643 L-0.7452113308808692 4.944154131125643 z"/>
<path fill="#b0e0e6" stroke="#b0e0e6" d="M-3.4008636888545936 3.665259359149134 L-3.4008636888545936 3.665259359149134 L-2.169418695587786 4.504844339512098 L-2.169418695587786 4.504844339512098 z"/>
<path fill="#b0e0e6" stroke="#b0e0e6" d="M2.1694186955877925 4.504844339512094 L2.1694186955877925 4.504844339512094 L3.400863688854598 3.66525935914913 L3.400863688854598 3.66525935914913 z"/>
<path fill="#b0e0e6" stroke="#b0e0e6" d="M0.7452113308808753 4.944154131125642 L0.7452113308808753 4.944154131125642 L2.1694186955877925 4.504844339512094 L2.1694186955877925 4.504844339512094 z"/>
<path fill="#b0e0e6" stroke="#b0e0e6" d="M-4.9860189859059 -0.3736504679321198 L-4.9860189859059 -0.3736504679321198 L-4.8746395609091175 1.1126046697815746 L-4.8746395609091175 1.1126046697815746 z"/>
<path fill="#b0e0e6" stroke="#b0e0e6" d="M-4.330127018922193 2.5000000000000013 L-4.330127018922193 2.5000000000000013 L-3.4008636888545944 3.6652593591491334 L-3.4008636888545944 3.6652593591491334 z"/>
<path fill="#b0e0e6" stroke="#b0e0e6" d="M-4.8746395609091175 1.1126046697815746 L-4.8746395609091175 1.1126046697815746 L-4.330127018922193 2.5000000000000013 L-4.330127018922193 2.5000000000000013 z"/>
<path fill="#b0e0e6" stroke="#b0e0e6" d="M-4.654368743221023 -1.8267051218319708 L-4.654368743221023 -1.8267051218319708 L-4.9860189859059005 -0.3736504679321198 L-4.9860189859059005 -0.3736504679321198 z"/>
<path fill="#b0e0e6" stroke="#b0e0e6" d="M-3.9091574123401522 -3.117449009293663 L-3.9091574123401522 -3.117449009293663 L-4.654368743221023 -1.8267051218319708 L-4.654368743221023 -1.8267051218319708 z"/>
<path fill="#b0e0e6" stroke="#b0e0e6" d="M-1.4737758720545273 -4.7778640289307015 L-1.4737758720545273 -4.7778640289307015 L-2.8166002903181164 -4.13119387157997 L-2.8166002903181164 -4.13119387157997 z"/>
<path fill="#b0e0e6" stroke="#b0e0e6" d="M-2.8166002903181164 -4.13119387157997 L-2.8166002903181164 -4.13119387157997 L-3.909157412340152 -3.1174490092936633 L-3.909157412340152 -3.1174490092936633 z"/>
<path fill="#b0e0e6" stroke="#b0e0e6" d="M1.4737758720545204 -4.777864028930703 L3.061616997868383e-16 -4.999999999999999 L-1.4737758720545275 -4.777864028930701 L-2.816600290318117 -4.131193871579969 L-3.9091574123401522 -3.117449009293663 L-4.654368743221023 -1.8267051218319708 L-4.9860189859059005 -0.3736504679321198 L-4.8746395609091175 1.1126046697815746 L-4.330127018922193 2.5000000000000013 L-3.4008636888545944 3.6652593591491334 L-2.1694186955877863 4.504844339512097 L-0.7452113308808693 4.944154131125642 L0.7452113308808754 4.944154131125641 L2.169418695587793 4.504844339512093 L3.4008636888545984 3.665259359149129 L4.3301270189221945 2.4999999999999987 L4.874639560909118 1.1126046697815706 L4.9860189859059005 -0.3736504679321223 L4.654368743221021 -1.8267051218319759 L3.9091574123401482 -3.117449009293668 L2.8166002903181098 -4.131193871579973 z"/>
<path fill="#b0e0e6" stroke="#b0e0e6" d="M1.4737758720545204 -4.777864028930703 L2.8166002903181098 -4.131193871579973 L3.9091574123401482 -3.117449009293668 L4.654368743221021 -1.8267051218319759 L4.9860189859059005 -0.3736504679321223 L4.874639560909118 1.1126046697815706 L4.3301270189221945 2.4999999999999987 L3.4008636888545984 3.665259359149129 L2.169418695587793 4.504844339512093 L0.7452113308808754 4.944154131125641 L-0.7452113308808693 4.944154131125642 L-2.1694186955877863 4.504844339512097 L-3.4008636888545944 3.6652593591491334 L-4.330127018922193 2.5000000000000013 L-4.8746395609091175 1.1126046697815746 L-4.9860189859059005 -0.3736504679321198 L-4.654368743221023 -1.8267051218319708 L-3.9091574123401522 -3.117449009293663 L-2.816600290318117 -4.131193871579969 L-1.4737758720545275 -4.777864028930701 L3.061616997868383e-16 -4.999999999999999 z"/>
<path fill="#c0c0c0" stroke="#c0c0c0" d="M3.0616169978683826e-16 -4.9720770655628215 L1.4737758720545202 -4.749941094493526 L1.4737758720545202 -4.749941094493526 L0.5895103488218083 -4.883222677135103 L3.0616169978683826e-16 -4.9720770655628215 z"/>
<path fill="#c0c0c0" stroke="#c0c0c0" d="M2.010905639359956 -4.491273031553233 L1.4737758720545202 -4.749941094493526 L1.4737758720545202 -4.749941094493526 L2.8166002903181093 -4.103270937142796 L2.8166002903181093 -4.103270937142796 z"/>
<path fill="#c0c0c0" stroke="#c0c0c0" d="M-1.4737758720545273 -4.749941094493523 L-1.4737758720545273 -4.749941094493523 L3.061616997868382e-16 -4.972077065562821 L3.061616997868382e-16 -4.972077065562821 L-0.8842655232327162 -4.838795482921242 z"/>
<path fill="#c0c0c0" stroke="#c0c0c0" d="M3.253623139126925 -3.6977729922282734 L2.8166002903181093 -4.103270937142796 L2.8166002903181093 -4.103270937142796 L3.909157412340148 -3.08952607485649 L3.909157412340148 -3.08952607485649 z"/>
<path fill="#c0c0c0" stroke="#c0c0c0" d="M3.9091574123401482 -3.0895260748564897 L3.9091574123401482 -3.0895260748564897 L4.654368743221021 -1.7987821873947973 L4.654368743221021 -1.7987821873947973 L4.2072419446924965 -2.5732285198718126 z"/>
<path fill="#c0c0c0" stroke="#c0c0c0" d="M4.9414672159071875 0.2487745215905334 L4.9860189859059 -0.3457275334949438 L4.9860189859059 -0.3457275334949438 L4.874639560909118 1.140527604218749 L4.874639560909118 1.140527604218749 z"/>
<path fill="#c0c0c0" stroke="#c0c0c0" d="M4.874639560909118 1.140527604218749 L4.3301270189221945 2.527922934437177 L4.3301270189221945 2.527922934437177 L4.656834544114348 1.6954857363061204 L4.874639560909118 1.140527604218749 z"/>
<path fill="#c0c0c0" stroke="#c0c0c0" d="M3.5181664052673915 3.5460893397045696 L3.9584216868951563 2.994026678096829 L4.3301270189221945 2.5279229344371767 L4.3301270189221945 2.5279229344371767 L3.5181664052673915 3.5460893397045696 L3.4008636888545984 3.693182293586308 L3.4008636888545984 3.693182293586308 z"/>
<path fill="#c0c0c0" stroke="#c0c0c0" d="M4.654368743221021 -1.7987821873947971 L4.9860189859059005 -0.34572753349494373 L4.9860189859059005 -0.34572753349494373 L4.7870288402949726 -1.2175603258348557 L4.654368743221021 -1.7987821873947971 z"/>
<path fill="#c0c0c0" stroke="#c0c0c0" d="M0.7452113308808753 4.972077065562821 L-0.7452113308808691 4.972077065562821 L-0.7452113308808691 4.972077065562821 L0.1490422661761775 4.972077065562821 L0.7452113308808753 4.972077065562821 z"/>
<path fill="#c0c0c0" stroke="#c0c0c0" d="M-0.7452113308808692 4.9720770655628215 L-0.7452113308808692 4.9720770655628215 L-2.169418695587786 4.532767273949276 L-2.169418695587786 4.532767273949276 L-1.314894276763636 4.796353148917403 z"/>
<path fill="#c0c0c0" stroke="#c0c0c0" d="M-2.169418695587786 4.532767273949276 L-3.400863688854594 3.6931822935863123 L-3.400863688854594 3.6931822935863123 L-2.661996692894509 4.196933281804091 L-2.169418695587786 4.532767273949276 z"/>
<path fill="#c0c0c0" stroke="#c0c0c0" d="M3.400863688854598 3.6931822935863083 L3.400863688854598 3.6931822935863083 L2.1694186955877925 4.532767273949273 L2.1694186955877925 4.532767273949273 L2.908285691547876 4.029016285731494 z"/>
<path fill="#c0c0c0" stroke="#c0c0c0" d="M2.1694186955877925 4.532767273949273 L0.7452113308808753 4.972077065562821 L0.7452113308808753 4.972077065562821 L1.5997357497050257 4.708491190594692 L2.1694186955877925 4.532767273949273 z"/>
<path fill="#c0c0c0" stroke="#c0c0c0" d="M-4.8746395609091175 1.140527604218753 L-4.9860189859059 -0.34572753349494123 L-4.9860189859059 -0.34572753349494123 L-4.919191330907831 0.5460255491332754 L-4.8746395609091175 1.140527604218753 z"/>
<path fill="#c0c0c0" stroke="#c0c0c0" d="M-3.4008636888545944 3.693182293586312 L-4.330127018922193 2.52792293443718 L-4.330127018922193 2.52792293443718 L-3.7725690208816336 3.2270785499266594 L-3.4008636888545944 3.693182293586312 z"/>
<path fill="#c0c0c0" stroke="#c0c0c0" d="M-4.330127018922193 2.52792293443718 L-4.330127018922193 2.52792293443718 L-4.8746395609091175 1.140527604218753 L-4.8746395609091175 1.140527604218753 L-4.547932035716962 1.9729648023498092 z"/>
<path fill="#c0c0c0" stroke="#c0c0c0" d="M-4.9860189859059005 -0.34572753349494123 L-4.9860189859059005 -0.34572753349494123 L-4.654368743221023 -1.7987821873947922 L-4.654368743221023 -1.7987821873947922 L-4.853358888831949 -0.9269493950548817 z"/>
<path fill="#c0c0c0" stroke="#c0c0c0" d="M-4.356284210868674 -2.3150797423794693 L-4.654368743221023 -1.7987821873947922 L-4.654368743221023 -1.7987821873947922 L-3.9091574123401522 -3.0895260748564843 L-3.9091574123401522 -3.0895260748564843 z"/>
<path fill="#c0c0c0" stroke="#c0c0c0" d="M-2.8166002903181164 -4.103270937142791 L-2.8166002903181164 -4.103270937142791 L-1.4737758720545273 -4.749941094493523 L-1.4737758720545273 -4.749941094493523 L-2.2794705230126806 -4.361939000083083 z"/>
<path fill="#c0c0c0" stroke="#c0c0c0" d="M-3.4721345635313376 -3.4950240197710074 L-3.498491391628419 -3.4705684571912405 L-3.909157412340152 -3.089526074856485 L-3.909157412340152 -3.089526074856485 L-3.498491391628419 -3.4705684571912405 L-2.8166002903181164 -4.103270937142791 L-2.8166002903181164 -4.103270937142791 z"/>
<path fill="#c0c0c0" stroke="#c0c0c0" d="M-10 -9.97207706556282 L10 -9.97207706556282 L10 10.027922934437177 L-10 10.027922934437177 M1.4737758720545204 -4.749941094493525 L3.061616997868383e-16 -4.972077065562821 L-1.4737758720545275 -4.749941094493522 L-2.816600290318117 -4.10327093714279 L-3.498491391628419 -3.47056845719124 L-3.9091574123401522 -3.0895260748564843 L-4.654368743221023 -1.7987821873947922 L-4.9860189859059005 -0.3457275334949413 L-4.8746395609091175 1.140527604218753 L-4.330127018922193 2.52792293443718 L-3.4008636888545944 3.693182293586312 L-2.1694186955877863 4.5327672739492755 L-0.7452113308808693 4.972077065562821 L0.7452113308808754 4.97207706556282 L2.169418695587793 4.532767273949272 L3.4008636888545984 3.6931822935863075 L3.518166405267391 3.546089339704569 L4.3301270189221945 2.527922934437177 L4.874639560909118 1.140527604218749 L4.9860189859059005 -0.3457275334949438 L4.654368743221021 -1.7987821873947973 L3.9091574123401482 -3.0895260748564897 L2.8166002903181098 -4.103270937142795 z"/>
<path fill="#c0c0c0" stroke="#c0c0c0" d="M10 -9.97207706556282 L-10 -9.97207706556282 L-10 10.027922934437177 L10 10.027922934437177 M3.061616997868383e-16 -4.972077065562821 L0.5895103488218083 -4.883222677135103 L1.4737758720545204 -4.749941094493525 L2.010905639359956 -4.4912730315532325 L2.8166002903181098 -4.103270937142795 L3.253623139126925 -3.697772992228273 L3.9091574123401482 -3.0895260748564897 L4.2072419446924965 -2.5732285198718126 L4.654368743221021 -1.7987821873947973 L4.7870288402949726 -1.2175603258348557 L4.9860189859059005 -0.3457275334949438 L4.9414672159071875 0.2487745215905334 L4.874639560909118 1.140527604218749 L4.656834544114348 1.6954857363061202 L4.3301270189221945 2.527922934437177 L3.958421686895156 2.9940266780968297 L3.518166405267391 3.546089339704569 L3.4008636888545984 3.6931822935863075 L2.908285691547876 4.029016285731493 L2.169418695587793 4.532767273949272 L1.599735749705026 4.708491190594691 L0.7452113308808754 4.97207706556282 L0.14904226617617752 4.972077065562821 L-0.7452113308808693 4.972077065562821 L-1.314894276763636 4.796353148917403 L-2.1694186955877863 4.5327672739492755 L-2.6619966928945096 4.19693328180409 L-3.4008636888545944 3.693182293586312 L-3.7725690208816336 3.2270785499266585 L-4.330127018922193 2.52792293443718 L-4.547932035716962 1.9729648023498094 L-4.8746395609091175 1.140527604218753 L-4.919191330907831 0.5460255491332754 L-4.9860189859059005 -0.3457275334949413 L-4.853358888831949 -0.9269493950548816 L-4.654368743221023 -1.7987821873947922 L-4.356284210868674 -2.3150797423794693 L-3.9091574123401522 -3.0895260748564843 L-3.498491391628419 -3.47056845719124 L-3.472134563531338 -3.4950240197710065 L-2.816600290318117 -4.10327093714279 L-2.279470523012681 -4.361939000083082 L-1.4737758720545275 -4.749941094493522 L-0.8842655232327163 -4.838795482921242 z"/>
<path fill="#c0c0c0" stroke="#c0c0c0" d="M-10 10.027922934437179 L10 10.027922934437179 L10 10.027922934437179 L-10 10.027922934437179 z"/>
<path fill="#c0c0c0" stroke="#c0c0c0" d="M-10 -9.972077065562821 L-10 10.027922934437179 L-10 10.027922934437179 L-10 -9.972077065562821 z"/>
<path fill="#c0c0c0" stroke="#c0c0c0" d="M10 -9.972077065562821 L-10 -9.972077065562821 L-10 -9.972077065562821 L10 -9.972077065562821 z"/>
<path fill="#c0c0c0" stroke="#c0c0c0" d="M10 10.027922934437179 L10 -9.972077065562821 L10 -9.972077065562821 L10 10.027922934437179 z"/>
<path fill="#b0e0e6" stroke="#b0e0e6" d="M1.4737758720545202 -4.749941094493526 L1.4737758720545202 -4.749941094493526 L3.0616169978683826e-16 -4.9720770655628215 L3.0616169978683826e-16 -4.9720770655628215 z"/>
<path fill="#b0e0e6" stroke="#b0e0e6" d="M2.8166002903181093 -4.103270937142796 L2.8166002903181093 -4.103270937142796 L1.4737758720545202 -4.749941094493526 L1.4737758720545202 -4.749941094493526 z"/>
<path fill="#b0e0e6" stroke="#b0e0e6" d="M3.0616169978683826e-16 -4.972077065562821 L3.0616169978683826e-16 -4.972077065562821 L-1.4737758720545273 -4.749941094493523 L-1.4737758720545273 -4.749941094493523 z"/>
<path fill="#b0e0e6" stroke="#b0e0e6" d="M3.909157412340148 -3.08952607485649 L3.909157412340148 -3.08952607485649 L2.8166002903181093 -4.103270937142796 L2.8166002903181093 -4.103270937142796 z"/>
<path fill="#b0e0e6" stroke="#b0e0e6" d="M4.654368743221021 -1.7987821873947971 L4.654368743221021 -1.7987821873947971 L3.9091574123401482 -3.0895260748564897 L3.9091574123401482 -3.0895260748564897 z"/>
<path fill="#b0e0e6" stroke="#b0e0e6" d="M4.874639560909118 1.140527604218749 L4.874639560909118 1.140527604218749 L4.9860189859059 -0.3457275334949438 L4.9860189859059 -0.3457275334949438 z"/>
<path fill="#b0e0e6" stroke="#b0e0e6" d="M4.3301270189221945 2.527922934437177 L4.3301270189221945 2.527922934437177 L4.874639560909118 1.140527604218749 L4.874639560909118 1.140527604218749 z"/>
<path fill="#b0e0e6" stroke="#b0e0e6" d="M3.4008636888545984 3.693182293586308 L3.4008636888545984 3.693182293586308 L4.3301270189221945 2.527922934437177 L4.3301270189221945 2.527922934437177 z"/>
<path fill="#b0e0e6" stroke="#b0e0e6" d="M4.9860189859059005 -0.3457275334949438 L4.9860189859059005 -0.3457275334949438 L4.654368743221021 -1.7987821873947973 L4.654368743221021 -1.7987821873947973 z"/>
<path fill="#b0e0e6" stroke="#b0e0e6" d="M-0.7452113308808692 4.972077065562821 L-0.7452113308808692 4.972077065562821 L0.7452113308808753 4.972077065562821 L0.7452113308808753 4.972077065562821 z"/>
<path fill="#b0e0e6" stroke="#b0e0e6" d="M-2.169418695587786 4.532767273949276 L-2.169418695587786 4.532767273949276 L-0.7452113308808692 4.9720770655628215 L-0.7452113308808692 4.9720770655628215 z"/>
<path fill="#b0e0e6" stroke="#b0e0e6" d="M-3.4008636888545936 3.6931822935863123 L-3.4008636888545936 3.6931822935863123 L-2.169418695587786 4.532767273949276 L-2.169418695587786 4.532767273949276 z"/>
<path fill="#b0e0e6" stroke="#b0e0e6" d="M2.1694186955877925 4.532767273949273 L2.1694186955877925 4.532767273949273 L3.400863688854598 3.6931822935863083 L3.400863688854598 3.6931822935863083 z"/>
<path fill="#b0e0e6" stroke="#b0e0e6" d="M0.7452113308808753 4.972077065562821 L0.7452113308808753 4.972077065562821 L2.1694186955877925 4.532767273949273 L2.1694186955877925 4.532767273949273 z"/>
<path fill="#b0e0e6" stroke="#b0e0e6" d="M-4.9860189859059 -0.3457275334949413 L-4.9860189859059 -0.3457275334949413 L-4.8746395609091175 1.140527604218753 L-4.8746395609091175 1.140527604218753 z"/>
<path fill="#b0e0e6" stroke="#b0e0e6" d="M-4.330127018922193 2.52792293443718 L-4.330127018922193 2.52792293443718 L-3.4008636888545944 3.693182293586312 L-3.4008636888545944 3.693182293586312 z"/>
<path fill="#b0e0e6" stroke="#b0e0e6" d="M-4.8746395609091175 1.140527604218753 L-4.8746395609091175 1.140527604218753 L-4.330127018922193 2.52792293443718 L-4.330127018922193 2.52792293443718 z"/>
<path fill="#b0e0e6" stroke="#b0e0e6" d="M-4.654368743221023 -1.7987821873947922 L-4.654368743221023 -1.7987821873947922 L-4.9860189859059005 -0.3457275334949413 L-4.9860189859059005 -0.3457275334949413 z"/>
<path fill="#b0e0e6" stroke="#b0e0e6" d="M-3.9091574123401522 -3.0895260748564843 L-3.9091574123401522 -3.0895260748564843 L-4.654368743221023 -1.7987821873947922 L-4.654368743221023 -1.7987821873947922 z"/>
<path fill="#b0e0e6" stroke="#b0e0e6" d="M-1.4737758720545273 -4.749941094493523 L-1.4737758720545273 -4.749941094493523 L-2.8166002903181164 -4.103270937142791 L-2.8166002903181164 -4.103270937142791 z"/>
<path fill="#b0e0e6" stroke="#b0e0e6" d="M-2.8166002903181164 -4.103270937142791 L-2.8166002903181164 -4.103270937142791 L-3.909157412340152 -3.089526074856485 L-3.909157412340152 -3.089526074856485 z"/>
<path fill="#b0e0e6" stroke="#b0e0e6" d="M1.4737758720545204 -4.749941094493525 L3.061616997868383e-16 -4.972077065562821 L-1.4737758720545275 -4.749941094493522 L-2.816600290318117 -4.10327093714279 L-3.9091574123401522 -3.089526074856484 L-4.654368743221023 -1.7987821873947922 L-4.9860189859059005 -0.3457275334949413 L-4.8746395609091175 1.140527604218753 L-4.330127018922193 2.52792293443718 L-3.4008636888545944 3.693182293586312 L-2.1694186955877863 4.5327672739492755 L-0.7452113308808693 4.972077065562821 L0.7452113308808754 4.97207706556282 L2.169418695587793 4.532767273949272 L3.4008636888545984 3.693182293586308 L4.3301270189221945 2.527922934437177 L4.874639560909118 1.140527604218749 L4.9860189859059005 -0.3457275334949438 L4.654368743221021 -1.7987821873947973 L3.9091574123401482 -3.0895260748564897 L2.8166002903181098 -4.103270937142795 z"/>
<path fill="#b0e0e6" stroke="#b0e0e6" d="M1.4737758720545204 -4.749941094493525 L2.8166002903181098 -4.103270937142795 L3.9091574123401482 -3.0895260748564897 L4.654368743221021 -1.7987821873947973 L4.9860189859059005 -0.3457275334949438 L4.874639560909118 1.140527604218749 L4.3301270189221945 2.527922934437177 L3.4008636888545984 3.693182293586308 L2.169418695587793 4.532767273949272 L0.7452113308808754 4.97207706556282 L-0.7452113308808693 4.972077065562821 L-2.1694186955877863 4.5327672739492755 L-3.4008636888545944 3.693182293586312 L-4.330127018922193 2.52792293443718 L-4.8746395609091175 1.140527604218753 L-4.9860189859059005 -0.3457275334949413 L-4.654368743221023 -1.7987821873947922 L-3.9091574123401522 -3.089526074856484 L-2.816600290318117 -4.10327093714279 L-1.4737758720545275 -4.749941094493522 L3.061616997868383e-16 -4.972077065562821 z"/>
</svg>