<?xml version="1.0" encoding="UTF-8"?>
<!-- Generated by jsxcad -->
<!DOCTYPE svg PUBLIC "-//W3C//DTD SVG 1.1 Tiny//EN" "http://www.w3.org/Graphics/SVG/1.1/DTD/svg11-tiny.dtd">
<svg baseProfile="tiny" height="20.000000000000014mm" width="22.000000000000014mm" viewBox="-11.000000000000007 -10.000000000000007 22.000000000000014 20.000000000000014" version="1.1" stroke="black" stroke-width=".1" fill="none" xmlns="http://www.w3.org/2000/svg">
<path fill="#c0c0c0" stroke="#c0c0c0" d="M-11 10 L-11 10 L11 10 L11 10 z"/>
<path fill="#c0c0c0" stroke="#c0c0c0" d="M-11 -10 L-11 -10 L-11 10 L-11 10 z"/>
<path fill="#c0c0c0" stroke="#c0c0c0" d="M11 -10 L11 -10 L-11 -10 L-11 -10 z"/>
<path fill="#c0c0c0" stroke="#c0c0c0" d="M11 10 L11 10 L11 -10 L11 -10 z"/>
<path fill="#c0c0c0" stroke="#c0c0c0" d="M-11 9.999999999999998 L11 9.999999999999998 L11 -9.999999999999998 L-11 -9.999999999999998 z"/>
<path fill="#c0c0c0" stroke="#c0c0c0" d="M-11 9.999999999999998 L-11 -9.999999999999998 L11 -9.999999999999998 L11 9.999999999999998 z"/>
<path fill="#c0c0c0" stroke="#c0c0c0" d="M-11 10 L-11 10 L11 10 L11 10 z"/>
<path fill="#c0c0c0" stroke="#c0c0c0" d="M-11 -10 L-11 -10 L-11 10 L-11 10 z"/>
<path fill="#c0c0c0" stroke="#c0c0c0" d="M11 -10 L11 -10 L-11 -10 L-11 -10 z"/>
<path fill="#c0c0c0" stroke="#c0c0c0" d="M11 10 L11 10 L11 -10 L11 -10 z"/>
<path fill="#c0c0c0" stroke="#c0c0c0" d="M-11 9.999999999999998 L11 9.999999999999998 L11 -9.999999999999998 L-11 -9.999999999999998 z"/>
<path fill="#c0c0c0" stroke="#c0c0c0" d="M-11 9.999999999999998 L-11 -9.999999999999998 L11 -9.999999999999998 L11 9.999999999999998 z"/>
</svg>