<?xml version="1.0" encoding="UTF-8"?>
<!-- Generated by jsxcad -->
<!DOCTYPE svg PUBLIC "-//W3C//DTD SVG 1.1 Tiny//EN" "http://www.w3.org/Graphics/SVG/1.1/DTD/svg11-tiny.dtd">
<svg baseProfile="tiny" height="40.00000000000003mm" width="40.00000000000003mm" viewBox="-20.000000000000014 -20.000000000000014 40.00000000000003 40.00000000000003" version="1.1" stroke="black" stroke-width=".1" fill="none" xmlns="http://www.w3.org/2000/svg">
<path fill="#000000" stroke="#000000" d="M1.2558103905862705 -19.96053456856543 L1.2246467991473533e-15 -19.999999999999996 L-1.2558103905863705 -19.96053456856542 L-2.50666467128618 -19.84229402628954 L-3.7476262917145977 -19.64574501457375 L-4.973797743297192 -19.371663222572593 L-6.180339887499037 -19.02113032590304 L-7.362491053693655 -18.595529717764986 L-8.51558583130154 -18.096541049320347 L-9.635073482034398 -17.526133600877216 L-10.716535899580002 -16.886558510040253 L-11.755705045849536 -16.18033988749889 L-12.748479794973859 -15.410264855515726 L-13.690942118573844 -14.57937254842816 L-14.579372548428285 -13.69094211857371 L-15.410264855515836 -12.748479794973731 L-16.180339887499 -11.755705045849394 L-16.886558510040345 -10.716535899579858 L-17.526133600877316 -9.635073482034228 L-18.09654104932042 -8.515585831301388 L-18.595529717765054 -7.362491053693491 L-19.021130325903094 -6.180339887498877 L-19.371663222572643 -4.9737977432970215 L-19.645745014573784 -3.7476262917144334 L-19.842294026289565 -2.5066646712860234 L-19.960534568565436 -1.2558103905862046 L-20 6.462178297730346e-14 L-19.96053456856543 1.2558103905863336 L-19.84229402628955 2.506664671286134 L-19.645745014573762 3.7476262917145426 L-19.371663222572607 4.973797743297147 L-19.02113032590306 6.180339887498992 L-18.59552971776501 7.362491053693603 L-18.09654104932037 8.515585831301497 L-17.52613360087725 9.635073482034342 L-16.886558510040278 10.716535899579968 L-16.180339887498928 11.755705045849492 L-15.41026485551576 12.748479794973822 L-14.579372548428209 13.690942118573796 L-13.690942118573748 14.579372548428251 L-12.748479794973766 15.410264855515804 L-11.755705045849432 16.180339887498967 L-10.716535899579906 16.886558510040313 L-9.635073482034278 17.526133600877284 L-8.515585831301422 18.0965410493204 L-7.362491053693535 18.595529717765036 L-6.1803398874989215 19.021130325903076 L-4.973797743297076 19.371663222572625 L-3.7476262917144703 19.645745014573777 L-2.506664671286065 19.842294026289554 L-1.2558103905862503 19.96053456856543 L1.4547323094649233e-14 19.999999999999996 L1.2558103905862794 19.96053456856543 L2.5066646712860985 19.84229402628955 L3.747626291714503 19.64574501457377 L4.973797743297103 19.371663222572618 L6.1803398874989535 19.021130325903066 L7.362491053693562 18.59552971776502 L8.515585831301456 18.096541049320386 L9.635073482034308 17.52613360087727 L10.716535899579934 16.886558510040295 L11.755705045849467 16.180339887498942 L12.748479794973797 15.410264855515779 L13.690942118573775 14.579372548428227 L14.579372548428234 13.690942118573767 L15.410264855515788 12.748479794973788 L16.180339887498953 11.755705045849457 L16.886558510040306 10.716535899579926 L17.526133600877273 9.635073482034299 L18.096541049320393 8.515585831301443 L18.595529717765032 7.362491053693552 L19.021130325903073 6.180339887498941 L19.371663222572625 4.973797743297086 L19.645745014573773 3.747626291714484 L19.842294026289558 2.5066646712860767 L19.960534568565432 1.2558103905862594 L20 -7.750818884463625e-15 L19.960534568565432 -1.2558103905862747 L19.842294026289554 -2.5066646712860927 L19.645745014573773 -3.7476262917144996 L19.37166322257262 -4.973797743297102 L19.02113032590307 -6.1803398874989535 L18.595529717765025 -7.3624910536935655 L18.096541049320386 -8.51558583130146 L17.526133600877266 -9.635073482034313 L16.886558510040295 -10.716535899579938 L16.180339887498945 -11.755705045849467 L15.410264855515779 -12.748479794973798 L14.579372548428221 -13.690942118573778 L13.690942118573767 -14.579372548428234 L12.748479794973786 -15.410264855515788 L11.755705045849453 -16.180339887498953 L10.716535899579924 -16.886558510040306 L9.635073482034295 -17.526133600877277 L8.515585831301442 -18.096541049320393 L7.3624910536935495 -18.59552971776503 L6.180339887498941 -19.02113032590307 L4.973797743297091 -19.37166322257262 L3.7476262917144902 -19.64574501457377 L2.5066646712860807 -19.842294026289554 z"/>
</svg>